<?xml version="1.0" standalone="no"?>
<!DOCTYPE svg PUBLIC "-//W3C//DTD SVG 20010904//EN"
 "http://www.w3.org/TR/2001/REC-SVG-20010904/DTD/svg10.dtd">
<svg version="1.0" xmlns="http://www.w3.org/2000/svg"
 width="1200.000000pt" height="1200.000000pt" viewBox="0 0 1200.000000 1200.000000"
 preserveAspectRatio="xMidYMid meet">
<metadata>
Created by potrace 1.11, written by Peter Selinger 2001-2013
</metadata>
<g transform="translate(0.000000,1200.000000) scale(0.100000,-0.100000)"
fill="#000000" stroke="none">
<path d="M0 6000 l0 -6000 5995 0 5995 0 0 6000 0 6000 -5995 0 -5995 0 0
-6000z m3480 5886 c198 -66 327 -197 387 -392 17 -56 18 -129 18 -1444 0
-1315 -1 -1388 -18 -1444 -61 -198 -195 -332 -393 -393 -56 -17 -129 -18
-1444 -18 -1315 0 -1388 1 -1444 18 -198 61 -332 195 -393 393 -17 56 -18 129
-18 1444 0 1315 1 1388 18 1444 69 224 245 377 467 406 30 4 665 7 1410 6
1290 -1 1358 -2 1410 -20z m3960 0 c198 -66 327 -197 387 -392 17 -56 18 -129
18 -1444 0 -1315 -1 -1388 -18 -1444 -61 -198 -195 -332 -393 -393 -56 -17
-129 -18 -1444 -18 -1315 0 -1388 1 -1444 18 -198 61 -332 195 -393 393 -17
56 -18 129 -18 1444 0 1315 1 1388 18 1444 69 224 245 377 467 406 30 4 665 7
1410 6 1290 -1 1358 -2 1410 -20z m3991 -7 c181 -70 293 -187 355 -369 18 -53
19 -113 19 -1460 0 -1347 -1 -1407 -19 -1460 -64 -188 -188 -312 -376 -376
-53 -18 -113 -19 -1460 -19 -1347 0 -1407 1 -1460 19 -188 64 -312 188 -376
376 -18 53 -19 113 -19 1460 0 1347 1 1407 19 1460 70 207 227 349 431 390 22
4 666 7 1430 7 l1390 -2 66 -26z m-7951 -4033 c198 -66 327 -197 387 -392 17
-56 18 -129 18 -1444 0 -1315 -1 -1388 -18 -1444 -61 -198 -195 -332 -393
-393 -56 -17 -129 -18 -1444 -18 -1315 0 -1388 1 -1444 18 -198 61 -332 195
-393 393 -17 56 -18 129 -18 1444 0 1315 1 1388 18 1444 69 224 245 377 467
406 30 4 665 7 1410 6 1290 -1 1358 -2 1410 -20z m3991 -7 c181 -70 293 -187
355 -369 18 -53 19 -113 19 -1460 0 -1347 -1 -1407 -19 -1460 -64 -188 -188
-312 -376 -376 -53 -18 -113 -19 -1460 -19 -1347 0 -1407 1 -1460 19 -188 64
-312 188 -376 376 -18 53 -19 113 -19 1460 0 1347 1 1407 19 1460 70 207 227
349 431 390 22 4 666 7 1430 7 l1390 -2 66 -26z m3929 7 c198 -66 327 -197
387 -392 17 -56 18 -129 18 -1444 0 -1315 -1 -1388 -18 -1444 -61 -198 -195
-332 -393 -393 -56 -17 -129 -18 -1444 -18 -1315 0 -1388 1 -1444 18 -198 61
-332 195 -393 393 -17 56 -18 129 -18 1444 0 1315 1 1388 18 1444 69 224 245
377 467 406 30 4 665 7 1410 6 1290 -1 1358 -2 1410 -20z m-7889 -4047 c181
-70 293 -187 355 -369 18 -53 19 -113 19 -1460 0 -1347 -1 -1407 -19 -1460
-64 -188 -188 -312 -376 -376 -53 -18 -113 -19 -1460 -19 -1347 0 -1407 1
-1460 19 -94 32 -171 78 -234 142 -64 63 -110 140 -142 234 -18 53 -19 113
-19 1460 0 1347 1 1407 19 1460 70 207 227 349 431 390 22 4 665 7 1430 7
l1390 -2 66 -26z m3929 7 c198 -66 327 -197 387 -392 17 -56 18 -129 18 -1444
0 -1315 -1 -1388 -18 -1444 -61 -198 -195 -332 -393 -393 -56 -17 -129 -18
-1444 -18 -1315 0 -1388 1 -1444 18 -198 61 -332 195 -393 393 -17 56 -18 129
-18 1444 0 1315 1 1388 18 1444 69 224 245 377 467 406 30 4 665 7 1410 6
1290 -1 1358 -2 1410 -20z m3960 0 c198 -66 327 -197 387 -392 17 -56 18 -129
18 -1444 0 -1315 -1 -1388 -18 -1444 -61 -198 -195 -332 -393 -393 -56 -17
-129 -18 -1444 -18 -1315 0 -1388 1 -1444 18 -198 61 -332 195 -393 393 -17
56 -18 129 -18 1444 0 1315 1 1388 18 1444 69 224 245 377 467 406 30 4 665 7
1410 6 1290 -1 1358 -2 1410 -20z"/>
<path d="M1910 11760 c-103 -10 -222 -31 -257 -46 -17 -8 -38 -14 -46 -14 -8
0 -69 -22 -135 -50 -120 -49 -245 -120 -352 -199 -57 -43 -290 -269 -290 -282
0 -4 -18 -29 -40 -54 -22 -25 -40 -50 -40 -55 0 -5 -13 -29 -29 -52 -67 -100
-91 -140 -91 -152 0 -8 -6 -19 -14 -25 -8 -7 -17 -24 -20 -39 -7 -29 -37 -94
-47 -102 -3 -3 -9 -18 -12 -35 -3 -16 -15 -57 -26 -90 -34 -96 -60 -214 -77
-351 -8 -71 -15 -138 -15 -149 1 -11 1 -36 0 -55 -1 -57 0 -62 5 -135 12 -172
19 -232 32 -264 8 -18 14 -45 14 -58 0 -30 39 -164 51 -177 5 -6 9 -18 9 -28
0 -10 9 -35 20 -55 11 -21 20 -43 20 -49 0 -12 63 -138 78 -157 6 -7 21 -33
34 -58 22 -44 31 -57 100 -146 74 -96 115 -141 175 -193 35 -30 71 -62 81 -71
14 -14 133 -96 197 -136 20 -12 111 -57 150 -73 11 -4 41 -18 66 -29 25 -12
53 -21 63 -21 9 0 26 -5 36 -10 10 -6 65 -20 122 -31 133 -28 411 -30 528 -5
41 9 84 16 95 16 11 0 33 7 49 15 15 8 37 15 49 15 11 0 41 10 66 21 25 12 55
25 66 30 117 47 222 107 335 191 78 58 244 217 288 278 15 19 41 52 59 73 18
20 33 41 33 46 0 5 17 35 39 67 57 88 121 210 121 232 0 11 5 22 11 24 13 4
89 224 89 259 0 14 5 30 11 36 12 12 22 73 44 253 24 212 0 567 -46 675 -5 11
-13 38 -18 60 -25 109 -97 276 -176 409 -42 71 -134 198 -160 221 -6 6 -26 29
-44 53 -18 23 -37 42 -42 42 -5 0 -23 16 -40 35 -17 19 -58 55 -92 80 -34 25
-75 55 -91 68 -68 53 -231 137 -264 137 -12 0 -22 4 -22 9 0 5 -10 12 -22 16
-13 3 -32 10 -43 14 -66 26 -137 44 -190 48 -33 3 -68 10 -77 15 -22 11 -232
16 -318 8z m283 -625 c20 -8 49 -15 64 -15 15 0 37 -7 47 -15 11 -8 26 -15 34
-15 14 0 97 -37 117 -53 58 -44 105 -77 110 -77 26 0 201 -211 238 -286 11
-24 25 -44 29 -44 4 0 8 -8 8 -18 0 -10 6 -26 13 -37 14 -21 57 -150 76 -225
15 -63 29 -259 25 -360 -3 -81 -17 -166 -34 -220 -5 -14 -11 -42 -15 -62 -3
-20 -12 -50 -20 -65 -8 -15 -15 -38 -15 -50 0 -12 -5 -25 -11 -29 -6 -3 -22
-30 -34 -59 -24 -53 -83 -156 -96 -165 -3 -3 -18 -22 -31 -42 -36 -53 -103
-121 -178 -180 -36 -29 -66 -55 -68 -60 -2 -4 -8 -8 -14 -8 -5 0 -30 -12 -56
-27 -56 -34 -177 -83 -201 -83 -9 0 -22 -5 -28 -11 -6 -6 -76 -13 -162 -16
-128 -5 -161 -3 -214 12 -106 30 -181 58 -198 72 -8 7 -20 13 -26 13 -24 0
-263 195 -263 215 0 3 -20 31 -44 62 -88 116 -168 306 -197 468 -15 87 -21
415 -8 431 6 7 14 34 19 61 13 73 36 157 49 181 6 11 11 28 11 37 0 9 9 28 20
42 11 14 20 32 20 40 0 8 14 35 30 60 17 24 30 47 30 50 0 14 98 141 153 197
146 148 307 238 502 281 86 19 273 19 318 0z"/>
<path d="M5870 11760 c-103 -10 -222 -31 -257 -46 -17 -8 -38 -14 -46 -14 -8
0 -69 -22 -135 -50 -120 -49 -245 -120 -352 -199 -57 -43 -290 -269 -290 -282
0 -4 -18 -29 -40 -54 -22 -25 -40 -50 -40 -55 0 -5 -13 -29 -29 -52 -67 -100
-91 -140 -91 -152 0 -8 -6 -19 -14 -25 -8 -7 -17 -24 -20 -39 -7 -29 -37 -94
-47 -102 -3 -3 -9 -18 -12 -35 -3 -16 -15 -57 -26 -90 -34 -96 -60 -214 -77
-351 -8 -71 -15 -138 -15 -149 1 -11 1 -36 0 -55 -1 -57 0 -62 5 -135 12 -172
19 -232 32 -264 8 -18 14 -45 14 -58 0 -30 39 -164 51 -177 5 -6 9 -18 9 -28
0 -10 9 -35 20 -55 11 -21 20 -43 20 -49 0 -12 63 -138 78 -157 6 -7 21 -33
34 -58 22 -44 31 -57 100 -146 74 -96 115 -141 175 -193 35 -30 71 -62 81 -71
14 -14 133 -96 197 -136 20 -12 111 -57 150 -73 11 -4 41 -18 66 -29 25 -12
53 -21 63 -21 9 0 26 -5 36 -10 10 -6 65 -20 122 -31 133 -28 411 -30 528 -5
41 9 84 16 95 16 11 0 33 7 49 15 15 8 37 15 49 15 11 0 41 10 66 21 25 12 55
25 66 30 117 47 222 107 335 191 78 58 244 217 288 278 15 19 41 52 59 73 18
20 33 41 33 46 0 5 17 35 39 67 57 88 121 210 121 232 0 11 5 22 11 24 13 4
89 224 89 259 0 14 5 30 11 36 12 12 22 73 44 253 24 212 0 567 -46 675 -5 11
-13 38 -18 60 -25 109 -97 276 -176 409 -42 71 -134 198 -160 221 -6 6 -26 29
-44 53 -18 23 -37 42 -42 42 -5 0 -23 16 -40 35 -17 19 -58 55 -92 80 -34 25
-75 55 -91 68 -68 53 -231 137 -264 137 -12 0 -22 4 -22 9 0 5 -10 12 -22 16
-13 3 -32 10 -43 14 -66 26 -137 44 -190 48 -33 3 -68 10 -77 15 -22 11 -232
16 -318 8z m283 -625 c20 -8 49 -15 64 -15 15 0 37 -7 47 -15 11 -8 26 -15 34
-15 14 0 97 -37 117 -53 58 -44 105 -77 110 -77 26 0 201 -211 238 -286 11
-24 25 -44 29 -44 4 0 8 -8 8 -18 0 -10 6 -26 13 -37 14 -21 57 -150 76 -225
15 -63 29 -259 25 -360 -3 -81 -17 -166 -34 -220 -5 -14 -11 -42 -15 -62 -3
-20 -12 -50 -20 -65 -8 -15 -15 -38 -15 -50 0 -12 -5 -25 -11 -29 -6 -3 -22
-30 -34 -59 -24 -53 -83 -156 -96 -165 -3 -3 -18 -22 -31 -42 -36 -53 -103
-121 -178 -180 -36 -29 -66 -55 -68 -60 -2 -4 -8 -8 -14 -8 -5 0 -30 -12 -56
-27 -56 -34 -177 -83 -201 -83 -9 0 -22 -5 -28 -11 -6 -6 -76 -13 -162 -16
-128 -5 -161 -3 -214 12 -106 30 -181 58 -198 72 -8 7 -20 13 -26 13 -24 0
-263 195 -263 215 0 3 -20 31 -44 62 -88 116 -168 306 -197 468 -15 87 -21
415 -8 431 6 7 14 34 19 61 13 73 36 157 49 181 6 11 11 28 11 37 0 9 9 28 20
42 11 14 20 32 20 40 0 8 14 35 30 60 17 24 30 47 30 50 0 14 98 141 153 197
146 148 307 238 502 281 86 19 273 19 318 0z"/>
<path d="M8595 11743 c-25 -7 -63 -31 -99 -62 -101 -91 -122 -260 -46 -369 17
-23 30 -47 30 -52 0 -5 6 -13 13 -17 7 -4 68 -69 136 -143 69 -74 157 -169
195 -210 39 -42 121 -129 181 -195 61 -66 148 -160 195 -210 251 -267 366
-394 359 -398 -5 -3 -302 -269 -309 -277 -3 -3 -25 -23 -50 -44 -25 -21 -67
-60 -95 -85 -27 -25 -133 -120 -235 -211 -102 -90 -203 -181 -225 -201 -22
-20 -89 -80 -150 -134 -141 -124 -221 -210 -247 -260 -25 -50 -34 -146 -19
-201 25 -92 105 -171 203 -200 123 -37 213 3 409 179 74 67 191 172 259 232
68 61 146 131 174 156 28 25 103 92 166 149 63 57 151 135 195 175 248 223
320 285 330 285 7 0 34 -24 61 -52 26 -29 100 -109 163 -177 64 -68 121 -129
126 -135 14 -16 108 -117 261 -281 71 -77 159 -171 194 -210 35 -38 104 -113
154 -166 50 -52 114 -121 143 -152 29 -31 57 -57 63 -57 5 0 10 -4 10 -9 0
-26 134 -81 195 -81 118 0 245 98 276 214 18 66 5 167 -28 218 -15 23 -30 48
-33 54 -3 6 -54 64 -115 129 -60 65 -121 129 -134 144 -13 14 -44 49 -70 76
-26 28 -80 86 -121 130 -40 44 -101 109 -135 145 -34 36 -119 128 -190 205
-71 77 -183 198 -250 268 -66 70 -121 132 -123 136 -1 5 34 41 80 82 45 41
109 99 143 129 33 30 99 89 145 130 71 63 142 127 196 175 6 6 46 42 89 80 44
39 109 97 145 130 88 80 131 118 290 260 74 66 140 125 146 130 24 23 83 118
94 151 17 51 8 160 -18 209 -27 53 -81 106 -138 135 -61 30 -172 31 -230 2
-77 -38 -96 -50 -137 -89 -23 -21 -105 -95 -182 -163 -77 -69 -145 -129 -151
-135 -6 -5 -48 -44 -94 -85 -46 -41 -111 -100 -145 -130 -33 -30 -99 -89 -145
-130 -71 -63 -142 -127 -196 -175 -6 -5 -46 -41 -90 -80 -43 -38 -106 -96
-140 -127 -33 -32 -65 -58 -70 -57 -5 1 -38 33 -74 72 -35 40 -117 129 -182
198 -65 69 -127 137 -139 150 -11 13 -44 49 -73 79 -58 62 -169 181 -266 286
-36 39 -119 128 -185 200 -230 248 -268 275 -394 273 -42 -1 -85 -4 -96 -6z"/>
<path d="M710 7723 c-14 -3 -29 -8 -35 -13 -5 -4 -21 -10 -35 -13 -42 -11
-140 -116 -140 -150 0 -7 -6 -19 -12 -26 -16 -15 -17 -179 -1 -189 5 -4 13
-19 17 -34 3 -16 11 -28 16 -28 6 0 10 -5 10 -11 0 -15 57 -86 131 -164 148
-155 249 -263 275 -294 16 -19 61 -68 101 -108 40 -41 73 -76 73 -78 0 -2 40
-46 89 -97 49 -51 102 -109 117 -128 16 -19 63 -70 104 -112 145 -150 205
-218 202 -230 -2 -7 -13 -19 -25 -27 -26 -18 -127 -109 -214 -192 -34 -32 -65
-59 -69 -59 -3 0 -34 -26 -68 -59 -33 -32 -83 -78 -111 -101 -27 -24 -60 -54
-72 -66 -12 -13 -25 -24 -28 -24 -3 0 -18 -12 -33 -27 -28 -28 -55 -53 -186
-168 -38 -33 -90 -81 -116 -106 -26 -25 -61 -56 -76 -68 -32 -25 -182 -161
-223 -202 -41 -41 -69 -82 -103 -151 -11 -24 -10 -144 1 -166 6 -9 12 -28 15
-42 6 -28 83 -113 131 -145 25 -17 47 -20 143 -20 64 0 116 4 120 10 4 6 25
19 47 30 22 11 54 33 71 50 17 16 50 47 75 68 120 104 178 157 237 215 35 34
67 62 71 62 4 0 33 25 65 55 31 30 59 55 63 55 3 0 15 10 27 23 22 22 47 45
205 187 46 41 96 86 110 100 15 14 42 38 61 54 46 38 180 159 242 219 27 26
52 47 57 47 10 0 329 -333 402 -420 11 -14 61 -68 111 -120 49 -52 127 -135
173 -185 46 -49 107 -115 136 -145 28 -30 86 -93 128 -139 147 -163 262 -271
290 -271 5 0 11 -5 13 -12 3 -7 38 -13 96 -16 114 -5 166 12 226 73 61 64 67
72 73 110 3 19 10 35 14 35 5 0 9 34 9 75 0 43 -4 75 -10 75 -5 0 -10 11 -10
24 0 13 -9 35 -20 49 -11 14 -20 29 -20 34 0 5 -46 58 -102 118 -57 59 -121
128 -143 153 -22 25 -75 80 -117 124 -43 44 -78 82 -78 85 0 3 -24 30 -52 60
-29 30 -73 77 -98 103 -25 27 -84 91 -132 142 -125 134 -170 183 -256 277 -42
46 -99 106 -125 133 l-49 50 46 41 c25 23 84 76 131 117 47 41 113 100 145
130 32 30 71 66 87 79 50 42 187 165 215 194 15 15 30 27 33 27 3 0 32 27 65
59 33 33 66 64 74 68 16 9 157 136 228 206 27 26 52 47 56 47 4 0 30 23 57 51
28 27 65 60 82 72 18 12 33 26 33 30 0 5 13 25 30 45 16 21 32 52 36 70 4 17
10 32 15 32 12 0 12 147 0 154 -5 3 -12 21 -15 39 -12 66 -132 167 -198 167
-16 0 -28 5 -28 10 0 6 -20 10 -44 10 -25 0 -48 -4 -51 -10 -3 -5 -16 -10 -27
-10 -33 0 -122 -49 -171 -94 -24 -23 -75 -68 -112 -101 -38 -33 -100 -89 -139
-124 -39 -35 -104 -94 -145 -130 -41 -36 -97 -87 -125 -113 -28 -26 -73 -66
-101 -89 -27 -23 -62 -55 -76 -70 -14 -16 -29 -29 -34 -29 -4 0 -17 -10 -29
-22 -12 -13 -60 -57 -106 -98 -46 -41 -97 -87 -112 -102 -15 -16 -29 -28 -32
-28 -3 0 -33 -27 -68 -59 -35 -32 -78 -72 -97 -89 l-35 -29 -60 62 c-34 34
-81 84 -105 111 -91 101 -259 280 -333 356 -43 44 -78 82 -78 85 0 5 -22 29
-135 148 -33 35 -100 107 -150 161 -175 189 -238 254 -247 254 -5 0 -19 11
-31 24 -13 14 -36 28 -53 32 -16 4 -31 11 -34 15 -7 10 -117 19 -150 12z"/>
<path d="M4635 7703 c-25 -7 -63 -31 -99 -62 -101 -91 -122 -260 -46 -369 17
-23 30 -47 30 -52 0 -5 6 -13 13 -17 7 -4 68 -69 136 -143 69 -74 157 -169
195 -210 39 -42 121 -129 181 -195 61 -66 148 -160 195 -210 251 -267 366
-394 359 -398 -5 -3 -302 -269 -309 -277 -3 -3 -25 -23 -50 -44 -25 -21 -67
-60 -95 -85 -27 -25 -133 -120 -235 -211 -102 -90 -203 -181 -225 -201 -22
-20 -89 -80 -150 -134 -141 -124 -221 -210 -247 -260 -25 -50 -34 -146 -19
-201 25 -92 105 -171 203 -200 123 -37 213 3 409 179 74 67 191 172 259 232
68 61 146 131 174 156 28 25 103 92 166 149 63 57 151 135 195 175 248 223
320 285 330 285 7 0 34 -24 61 -52 26 -29 100 -109 163 -177 64 -68 121 -129
126 -135 14 -16 108 -117 261 -281 71 -77 159 -171 194 -210 35 -38 104 -113
154 -166 50 -52 114 -121 143 -152 29 -31 57 -57 63 -57 5 0 10 -4 10 -9 0
-26 134 -81 195 -81 118 0 245 98 276 214 18 66 5 167 -28 218 -15 23 -30 48
-33 54 -3 6 -54 64 -115 129 -60 65 -121 129 -134 144 -13 14 -44 49 -70 76
-26 28 -80 86 -121 130 -40 44 -101 109 -135 145 -34 36 -119 128 -190 205
-71 77 -183 198 -250 268 -66 70 -121 132 -123 136 -1 5 34 41 80 82 45 41
109 99 143 129 33 30 99 89 145 130 71 63 142 127 196 175 6 6 46 42 89 80 44
39 109 97 145 130 88 80 131 118 290 260 74 66 140 125 146 130 24 23 83 118
94 151 17 51 8 160 -18 209 -27 53 -81 106 -138 135 -61 30 -172 31 -230 2
-77 -38 -96 -50 -137 -89 -23 -21 -105 -95 -182 -163 -77 -69 -145 -129 -151
-135 -6 -5 -48 -44 -94 -85 -46 -41 -111 -100 -145 -130 -33 -30 -99 -89 -145
-130 -71 -63 -142 -127 -196 -175 -6 -5 -46 -41 -90 -80 -43 -38 -106 -96
-140 -127 -33 -32 -65 -58 -70 -57 -5 1 -38 33 -74 72 -35 40 -117 129 -182
198 -65 69 -127 137 -139 150 -11 13 -44 49 -73 79 -58 62 -169 181 -266 286
-36 39 -119 128 -185 200 -230 248 -268 275 -394 273 -42 -1 -85 -4 -96 -6z"/>
<path d="M9830 7720 c-103 -10 -222 -31 -257 -46 -17 -8 -38 -14 -46 -14 -8 0
-69 -22 -135 -50 -120 -49 -245 -120 -352 -199 -57 -43 -290 -269 -290 -282 0
-4 -18 -29 -40 -54 -22 -25 -40 -50 -40 -55 0 -5 -13 -29 -29 -52 -67 -100
-91 -140 -91 -152 0 -8 -6 -19 -14 -25 -8 -7 -17 -24 -20 -39 -7 -29 -37 -94
-47 -102 -3 -3 -9 -18 -12 -35 -3 -16 -15 -57 -26 -90 -34 -96 -60 -214 -77
-351 -8 -71 -15 -138 -15 -149 1 -11 1 -36 0 -55 -1 -57 0 -62 5 -135 12 -172
19 -232 32 -264 8 -18 14 -45 14 -58 0 -30 39 -164 51 -177 5 -6 9 -18 9 -28
0 -10 9 -35 20 -55 11 -21 20 -43 20 -49 0 -12 63 -138 78 -157 6 -7 21 -33
34 -58 22 -44 31 -57 100 -146 74 -96 115 -141 175 -193 35 -30 71 -62 81 -71
14 -14 133 -96 197 -136 20 -12 111 -57 150 -73 11 -4 41 -18 66 -29 25 -12
53 -21 63 -21 9 0 26 -5 36 -10 10 -6 65 -20 122 -31 133 -28 411 -30 528 -5
41 9 84 16 95 16 11 0 33 7 49 15 15 8 37 15 49 15 11 0 41 10 66 21 25 12 55
25 66 30 117 47 222 107 335 191 78 58 244 217 288 278 15 19 41 52 59 73 18
20 33 41 33 46 0 5 17 35 39 67 57 88 121 210 121 232 0 11 5 22 11 24 13 4
89 224 89 259 0 14 5 30 11 36 12 12 22 73 44 253 24 212 0 567 -46 675 -5 11
-13 38 -18 60 -25 109 -97 276 -176 409 -42 71 -134 198 -160 221 -6 6 -26 29
-44 53 -18 23 -37 42 -42 42 -5 0 -23 16 -40 35 -17 19 -58 55 -92 80 -34 25
-75 55 -91 68 -68 53 -231 137 -264 137 -12 0 -22 4 -22 9 0 5 -10 12 -22 16
-13 3 -32 10 -43 14 -66 26 -137 44 -190 48 -33 3 -68 10 -77 15 -22 11 -232
16 -318 8z m283 -625 c20 -8 49 -15 64 -15 15 0 37 -7 47 -15 11 -8 26 -15 34
-15 14 0 97 -37 117 -53 58 -44 105 -77 110 -77 26 0 201 -211 238 -286 11
-24 25 -44 29 -44 4 0 8 -8 8 -18 0 -10 6 -26 13 -37 14 -21 57 -150 76 -225
15 -63 29 -259 25 -360 -3 -81 -17 -166 -34 -220 -5 -14 -11 -42 -15 -62 -3
-20 -12 -50 -20 -65 -8 -15 -15 -38 -15 -50 0 -12 -5 -25 -11 -29 -6 -3 -22
-30 -34 -59 -24 -53 -83 -156 -96 -165 -3 -3 -18 -22 -31 -42 -36 -53 -103
-121 -178 -180 -36 -29 -66 -55 -68 -60 -2 -4 -8 -8 -14 -8 -5 0 -30 -12 -56
-28 -56 -33 -177 -82 -201 -82 -9 0 -22 -5 -28 -11 -6 -6 -76 -13 -162 -16
-128 -5 -161 -3 -214 12 -106 30 -181 58 -198 72 -8 7 -20 13 -26 13 -24 0
-263 195 -263 215 0 3 -20 31 -44 62 -88 116 -168 306 -197 468 -15 87 -21
415 -8 431 6 7 14 34 19 61 13 73 36 157 49 181 6 11 11 28 11 37 0 9 9 28 20
42 11 14 20 32 20 40 0 8 14 35 30 60 17 24 30 47 30 50 0 14 98 141 153 197
146 148 307 238 502 281 86 19 273 19 318 0z"/>
<path d="M675 3663 c-25 -7 -63 -31 -99 -62 -101 -91 -122 -260 -46 -369 17
-23 30 -47 30 -52 0 -5 6 -13 13 -17 7 -4 68 -69 136 -143 69 -74 157 -169
195 -210 39 -42 121 -129 181 -195 61 -66 148 -160 195 -210 251 -267 366
-394 359 -398 -5 -3 -302 -269 -309 -277 -3 -3 -25 -23 -50 -44 -25 -21 -67
-60 -95 -85 -27 -25 -133 -120 -235 -211 -102 -90 -203 -181 -225 -201 -22
-20 -89 -80 -150 -134 -141 -124 -221 -210 -247 -260 -25 -50 -34 -146 -19
-201 25 -92 105 -171 203 -200 123 -37 213 3 409 179 74 67 191 172 259 232
68 61 146 131 174 156 28 25 103 92 166 149 63 57 151 135 195 175 248 223
320 285 330 285 7 0 34 -24 61 -52 26 -29 100 -109 163 -177 64 -68 121 -129
126 -135 14 -16 108 -117 261 -281 71 -77 159 -171 194 -210 35 -38 104 -113
154 -166 50 -52 114 -121 143 -152 29 -31 57 -57 63 -57 5 0 10 -4 10 -9 0
-26 134 -81 195 -81 118 0 245 98 276 214 18 66 5 167 -28 218 -15 23 -30 48
-33 54 -3 6 -54 64 -115 129 -60 65 -121 129 -134 144 -13 14 -44 49 -70 76
-26 28 -80 86 -121 130 -40 44 -101 109 -135 145 -34 36 -119 128 -190 205
-71 77 -183 198 -249 268 -67 71 -122 132 -124 136 -1 5 34 41 80 82 45 41
109 99 143 129 33 30 99 89 145 130 71 63 142 127 196 175 6 6 46 42 89 80 44
39 109 97 145 130 88 80 131 118 290 260 74 66 140 125 146 130 24 23 83 118
94 151 17 51 8 160 -18 209 -27 53 -81 106 -138 135 -61 30 -172 31 -230 2
-77 -38 -96 -50 -137 -89 -23 -21 -105 -95 -182 -163 -77 -69 -145 -129 -151
-135 -6 -5 -48 -44 -94 -85 -46 -41 -111 -100 -145 -130 -33 -30 -99 -89 -145
-130 -71 -63 -142 -127 -196 -175 -6 -5 -46 -41 -90 -80 -43 -38 -106 -96
-140 -127 -33 -32 -65 -58 -70 -57 -5 1 -38 33 -74 72 -35 40 -117 129 -182
198 -65 69 -127 137 -139 150 -11 13 -44 49 -73 79 -58 62 -169 181 -266 286
-36 39 -119 128 -185 200 -230 248 -268 275 -394 273 -42 -1 -85 -4 -96 -6z"/>
</g>
</svg>
