<svg version="1" xmlns="http://www.w3.org/2000/svg" width="1600" height="1600" viewBox="0 0 1200.000000 1200.000000"><path d="M0 600v600h1199V0H0v600zM348 11.4c19.8 6.6 32.7 19.7 38.7 39.2 1.7 5.6 1.8 12.9 1.8 144.4s-.1 138.8-1.8 144.4c-6.1 19.8-19.5 33.2-39.3 39.3-5.6 1.7-12.9 1.8-144.4 1.8s-138.8-.1-144.4-1.8c-19.8-6.1-33.2-19.5-39.3-39.3-1.7-5.6-1.8-12.9-1.8-144.4s.1-138.8 1.8-144.4C26.2 28.2 43.8 12.9 66 10c3-.4 66.5-.7 141-.6 129 .1 135.8.2 141 2zm396 0c19.8 6.6 32.7 19.7 38.7 39.2 1.7 5.6 1.8 12.9 1.8 144.4s-.1 138.8-1.8 144.4c-6.1 19.8-19.5 33.2-39.3 39.3-5.6 1.7-12.9 1.8-144.4 1.8s-138.8-.1-144.4-1.8c-19.8-6.1-33.2-19.5-39.3-39.3-1.7-5.6-1.8-12.9-1.8-144.4s.1-138.8 1.8-144.4c6.9-22.4 24.5-37.7 46.7-40.6 3-.4 66.5-.7 141-.6 129 .1 135.8.2 141 2zm399.1.7c18.1 7 29.3 18.7 35.5 36.9 1.8 5.3 1.9 11.3 1.9 146s-.1 140.7-1.9 146c-6.4 18.8-18.8 31.2-37.6 37.6-5.3 1.8-11.3 1.9-146 1.9s-140.7-.1-146-1.9c-18.8-6.4-31.2-18.8-37.6-37.6-1.8-5.3-1.9-11.3-1.9-146s.1-140.7 1.9-146c7-20.7 22.7-34.9 43.1-39 2.2-.4 66.6-.7 143-.7l139 .2 6.6 2.6zM348 415.4c19.8 6.6 32.7 19.7 38.7 39.2 1.7 5.6 1.8 12.9 1.8 144.4s-.1 138.8-1.8 144.4c-6.1 19.8-19.5 33.2-39.3 39.3-5.6 1.7-12.9 1.8-144.4 1.8s-138.8-.1-144.4-1.8c-19.8-6.1-33.2-19.5-39.3-39.3-1.7-5.6-1.8-12.9-1.8-144.4s.1-138.8 1.8-144.4c6.9-22.4 24.5-37.7 46.7-40.6 3-.4 66.5-.7 141-.6 129 .1 135.8.2 141 2zm399.1.7c18.1 7 29.3 18.7 35.5 36.9 1.8 5.3 1.9 11.3 1.9 146s-.1 140.7-1.9 146c-6.4 18.8-18.8 31.2-37.6 37.6-5.3 1.8-11.3 1.9-146 1.9s-140.7-.1-146-1.9c-18.8-6.4-31.2-18.8-37.6-37.6-1.8-5.3-1.9-11.3-1.9-146s.1-140.7 1.9-146c7-20.7 22.7-34.9 43.1-39 2.2-.4 66.6-.7 143-.7l139 .2 6.6 2.6zm392.9-.7c19.8 6.6 32.7 19.7 38.7 39.2 1.7 5.6 1.8 12.9 1.8 144.4s-.1 138.8-1.8 144.4c-6.1 19.8-19.5 33.2-39.3 39.3-5.6 1.7-12.9 1.8-144.4 1.8s-138.8-.1-144.4-1.8c-19.8-6.1-33.2-19.5-39.3-39.3-1.7-5.6-1.8-12.9-1.8-144.4s.1-138.8 1.8-144.4c6.9-22.4 24.5-37.7 46.7-40.6 3-.4 66.5-.7 141-.6 129 .1 135.8.2 141 2zM351.1 820.1c18.1 7 29.3 18.7 35.5 36.9 1.8 5.3 1.9 11.3 1.9 146s-.1 140.7-1.9 146c-6.4 18.8-18.8 31.2-37.6 37.6-5.3 1.8-11.3 1.9-146 1.9s-140.7-.1-146-1.9c-9.4-3.2-17.1-7.8-23.4-14.2-6.4-6.3-11-14-14.2-23.4-1.8-5.3-1.9-11.3-1.9-146s.1-140.7 1.9-146c7-20.7 22.7-34.9 43.1-39 2.2-.4 66.5-.7 143-.7l139 .2 6.6 2.6zm392.9-.7c19.8 6.6 32.7 19.7 38.7 39.2 1.7 5.6 1.8 12.9 1.8 144.4s-.1 138.8-1.8 144.4c-6.1 19.8-19.5 33.2-39.3 39.3-5.6 1.7-12.9 1.8-144.4 1.8s-138.8-.1-144.4-1.8c-19.8-6.1-33.2-19.5-39.3-39.3-1.7-5.6-1.8-12.9-1.8-144.4s.1-138.8 1.8-144.4c6.9-22.4 24.5-37.7 46.7-40.6 3-.4 66.5-.7 141-.6 129 .1 135.8.2 141 2zm396 0c19.8 6.6 32.7 19.7 38.7 39.2 1.7 5.6 1.8 12.9 1.8 144.4s-.1 138.8-1.8 144.4c-6.1 19.8-19.5 33.2-39.3 39.3-5.6 1.7-12.9 1.8-144.4 1.8s-138.8-.1-144.4-1.8c-19.8-6.1-33.2-19.5-39.3-39.3-1.7-5.6-1.8-12.9-1.8-144.4s.1-138.8 1.8-144.4c6.9-22.4 24.5-37.7 46.7-40.6 3-.4 66.5-.7 141-.6 129 .1 135.8.2 141 2z"/><path d="M191 24c-10.3 1-22.2 3.1-25.7 4.6-1.7.8-3.8 1.4-4.6 1.4-.8 0-6.9 2.2-13.5 5-12 4.9-24.5 12-35.2 19.9-5.7 4.3-29 26.9-29 28.2 0 .4-1.8 2.9-4 5.4-2.2 2.5-4 5-4 5.5s-1.3 2.9-2.9 5.2c-6.7 10-9.1 14-9.1 15.2 0 .8-.6 1.9-1.4 2.5-.8.7-1.7 2.4-2 3.9-.7 2.9-3.7 9.4-4.7 10.2-.3.3-.9 1.8-1.2 3.5-.3 1.6-1.5 5.7-2.6 9-3.4 9.6-6 21.4-7.7 35.1-.8 7.1-1.5 13.8-1.5 14.9.1 1.1.1 3.6 0 5.5-.1 5.7 0 6.2.5 13.5 1.2 17.2 1.9 23.2 3.2 26.4.8 1.8 1.4 4.5 1.4 5.8 0 3 3.9 16.4 5.1 17.7.5.6.9 1.8.9 2.8 0 1 .9 3.5 2 5.5 1.1 2.1 2 4.3 2 4.9 0 1.2 6.3 13.8 7.8 15.7.6.7 2.1 3.3 3.4 5.8 2.2 4.4 3.1 5.7 10 14.6 7.4 9.6 11.5 14.1 17.5 19.3 3.5 3 7.1 6.2 8.1 7.1 1.4 1.4 13.3 9.6 19.7 13.6 2 1.2 11.1 5.7 15 7.3 1.1.4 4.1 1.8 6.6 2.9 2.5 1.2 5.3 2.1 6.3 2.1.9 0 2.6.5 3.6 1 1 .6 6.5 2 12.2 3.1 13.3 2.8 41.1 3 52.8.5 4.1-.9 8.4-1.6 9.5-1.6 1.1 0 3.3-.7 4.9-1.5 1.5-.8 3.7-1.5 4.9-1.5 1.1 0 4.1-1 6.6-2.1 2.5-1.2 5.5-2.5 6.6-3 11.7-4.7 22.2-10.7 33.5-19.1 7.8-5.8 24.4-21.7 28.8-27.8 1.5-1.9 4.1-5.2 5.9-7.3 1.8-2 3.3-4.1 3.3-4.6s1.7-3.5 3.9-6.7c5.7-8.8 12.1-21 12.1-23.2 0-1.1.5-2.2 1.1-2.4 1.3-.4 8.9-22.4 8.9-25.9 0-1.4.5-3 1.1-3.6 1.2-1.2 2.2-7.3 4.4-25.3 2.4-21.2 0-56.7-4.6-67.5-.5-1.1-1.3-3.8-1.8-6-2.5-10.9-9.7-27.6-17.6-40.9-4.2-7.1-13.4-19.8-16-22.1-.6-.6-2.6-2.9-4.4-5.3-1.8-2.3-3.7-4.2-4.2-4.2s-2.3-1.6-4-3.5c-1.7-1.9-5.8-5.5-9.2-8-3.4-2.5-7.5-5.5-9.1-6.8-6.8-5.3-23.1-13.7-26.4-13.7-1.2 0-2.2-.4-2.2-.9s-1-1.2-2.2-1.6c-1.3-.3-3.2-1-4.3-1.4-6.6-2.6-13.7-4.4-19-4.8-3.3-.3-6.8-1-7.7-1.5-2.2-1.1-23.2-1.6-31.8-.8zm28.3 62.5c2 .8 4.9 1.5 6.4 1.5s3.7.7 4.7 1.5c1.1.8 2.6 1.5 3.4 1.5 1.4 0 9.7 3.7 11.7 5.3 5.8 4.4 10.5 7.7 11 7.7 2.6 0 20.1 21.1 23.8 28.6 1.1 2.4 2.5 4.4 2.9 4.4.4 0 .8.8.8 1.8s.6 2.6 1.3 3.7c1.4 2.1 5.7 15 7.6 22.5 1.5 6.3 2.9 25.9 2.5 36-.3 8.1-1.7 16.6-3.4 22-.5 1.4-1.1 4.2-1.5 6.2-.3 2-1.2 5-2 6.5s-1.5 3.8-1.5 5c0 1.2-.5 2.5-1.1 2.9-.6.3-2.2 3-3.4 5.9-2.4 5.3-8.3 15.6-9.6 16.5-.3.3-1.8 2.2-3.1 4.2-3.6 5.3-10.3 12.1-17.8 18-3.6 2.9-6.6 5.5-6.8 6-.2.4-.8.8-1.4.8-.5 0-3 1.2-5.6 2.7-5.6 3.4-17.7 8.3-20.1 8.3-.9 0-2.2.5-2.8 1.1-.6.6-7.6 1.3-16.2 1.6-12.8.5-16.1.3-21.4-1.2-10.6-3-18.1-5.8-19.8-7.2-.8-.7-2-1.3-2.6-1.3-2.4 0-26.3-19.5-26.3-21.5 0-.3-2-3.1-4.4-6.2-8.8-11.6-16.8-30.6-19.7-46.8-1.5-8.7-2.1-41.5-.8-43.1.6-.7 1.4-3.4 1.9-6.1 1.3-7.3 3.6-15.7 4.9-18.1.6-1.1 1.1-2.8 1.1-3.7 0-.9.9-2.8 2-4.2 1.1-1.4 2-3.2 2-4 0-.8 1.4-3.5 3-6 1.7-2.4 3-4.7 3-5 0-1.4 9.8-14.1 15.3-19.7 14.6-14.8 30.7-23.8 50.2-28.1 8.6-1.9 27.3-1.9 31.8 0zM587 24c-10.3 1-22.2 3.1-25.7 4.6-1.7.8-3.8 1.4-4.6 1.4-.8 0-6.9 2.2-13.5 5-12 4.9-24.5 12-35.2 19.9-5.7 4.3-29 26.9-29 28.2 0 .4-1.8 2.9-4 5.4-2.2 2.5-4 5-4 5.5s-1.3 2.9-2.9 5.2c-6.7 10-9.1 14-9.1 15.2 0 .8-.6 1.9-1.4 2.5-.8.7-1.7 2.4-2 3.9-.7 2.9-3.7 9.4-4.7 10.2-.3.3-.9 1.8-1.2 3.5-.3 1.6-1.5 5.7-2.6 9-3.4 9.6-6 21.4-7.7 35.1-.8 7.1-1.5 13.8-1.5 14.9.1 1.1.1 3.6 0 5.5-.1 5.7 0 6.2.5 13.5 1.2 17.2 1.9 23.2 3.2 26.4.8 1.8 1.4 4.5 1.4 5.8 0 3 3.9 16.4 5.1 17.7.5.6.9 1.8.9 2.8 0 1 .9 3.5 2 5.5 1.1 2.1 2 4.3 2 4.9 0 1.2 6.3 13.8 7.8 15.7.6.7 2.1 3.3 3.4 5.8 2.2 4.4 3.1 5.7 10 14.6 7.4 9.6 11.5 14.1 17.5 19.3 3.5 3 7.1 6.2 8.1 7.1 1.4 1.4 13.3 9.6 19.7 13.6 2 1.2 11.1 5.7 15 7.3 1.1.4 4.1 1.8 6.6 2.9 2.5 1.2 5.3 2.1 6.3 2.1.9 0 2.6.5 3.6 1 1 .6 6.5 2 12.2 3.1 13.3 2.8 41.1 3 52.8.5 4.1-.9 8.4-1.6 9.5-1.6 1.1 0 3.3-.7 4.9-1.5 1.5-.8 3.7-1.5 4.9-1.5 1.1 0 4.1-1 6.6-2.1 2.5-1.2 5.5-2.5 6.6-3 11.7-4.7 22.2-10.7 33.5-19.1 7.8-5.8 24.4-21.7 28.8-27.8 1.5-1.9 4.1-5.2 5.9-7.3 1.8-2 3.3-4.1 3.3-4.6s1.7-3.5 3.9-6.7c5.7-8.8 12.1-21 12.1-23.2 0-1.1.5-2.2 1.1-2.4 1.3-.4 8.9-22.4 8.9-25.9 0-1.4.5-3 1.1-3.6 1.2-1.2 2.2-7.3 4.4-25.3 2.4-21.2 0-56.7-4.6-67.5-.5-1.1-1.3-3.8-1.8-6-2.5-10.9-9.7-27.6-17.6-40.9-4.2-7.1-13.4-19.8-16-22.1-.6-.6-2.6-2.9-4.4-5.3-1.8-2.3-3.7-4.2-4.2-4.2s-2.3-1.6-4-3.5c-1.7-1.9-5.8-5.5-9.2-8-3.4-2.5-7.5-5.5-9.1-6.8-6.8-5.3-23.1-13.7-26.4-13.7-1.2 0-2.2-.4-2.2-.9s-1-1.2-2.2-1.6c-1.3-.3-3.2-1-4.3-1.4-6.6-2.6-13.7-4.4-19-4.8-3.3-.3-6.8-1-7.7-1.5-2.2-1.1-23.2-1.6-31.8-.8zm28.3 62.5c2 .8 4.9 1.5 6.4 1.5s3.7.7 4.7 1.5c1.1.8 2.6 1.5 3.4 1.5 1.4 0 9.7 3.7 11.7 5.3 5.8 4.4 10.5 7.7 11 7.7 2.6 0 20.1 21.1 23.8 28.6 1.1 2.4 2.5 4.4 2.9 4.4.4 0 .8.8.8 1.8s.6 2.6 1.3 3.7c1.4 2.1 5.7 15 7.6 22.5 1.5 6.3 2.9 25.9 2.5 36-.3 8.1-1.7 16.6-3.4 22-.5 1.4-1.1 4.2-1.5 6.2-.3 2-1.2 5-2 6.5s-1.5 3.8-1.5 5c0 1.2-.5 2.5-1.1 2.9-.6.3-2.2 3-3.4 5.9-2.4 5.3-8.3 15.6-9.6 16.5-.3.3-1.8 2.2-3.1 4.2-3.6 5.3-10.3 12.1-17.8 18-3.6 2.9-6.6 5.5-6.8 6-.2.4-.8.8-1.4.8-.5 0-3 1.2-5.6 2.7-5.6 3.4-17.7 8.3-20.1 8.3-.9 0-2.2.5-2.8 1.1-.6.6-7.6 1.3-16.2 1.6-12.8.5-16.1.3-21.4-1.2-10.6-3-18.1-5.8-19.8-7.2-.8-.7-2-1.3-2.6-1.3-2.4 0-26.3-19.5-26.3-21.5 0-.3-2-3.1-4.4-6.2-8.8-11.6-16.8-30.6-19.7-46.8-1.5-8.7-2.1-41.5-.8-43.1.6-.7 1.4-3.4 1.9-6.1 1.3-7.3 3.6-15.7 4.9-18.1.6-1.1 1.1-2.8 1.1-3.7 0-.9.9-2.8 2-4.2 1.1-1.4 2-3.2 2-4 0-.8 1.4-3.5 3-6 1.7-2.4 3-4.7 3-5 0-1.4 9.8-14.1 15.3-19.7 14.6-14.8 30.7-23.8 50.2-28.1 8.6-1.9 27.3-1.9 31.8 0zM859.5 25.7c-2.5.7-6.3 3.1-9.9 6.2-10.1 9.1-12.2 26-4.6 36.9 1.7 2.3 3 4.7 3 5.2s.6 1.3 1.3 1.7c.7.4 6.8 6.9 13.6 14.3 6.9 7.4 15.7 16.9 19.5 21 3.9 4.2 12.1 12.9 18.1 19.5 6.1 6.6 14.8 16 19.5 21 25.1 26.7 36.6 39.4 35.9 39.8-.5.3-30.2 26.9-30.9 27.7-.3.3-2.5 2.3-5 4.4-2.5 2.1-6.7 6-9.5 8.5-2.7 2.5-13.3 12-23.5 21.1-10.2 9-20.3 18.1-22.5 20.1-2.2 2-8.9 8-15 13.4-14.1 12.4-22.1 21-24.7 26-2.5 5-3.4 14.6-1.9 20.1 2.5 9.2 10.5 17.1 20.3 20 12.3 3.7 21.3-.3 40.9-17.9 7.4-6.7 19.1-17.2 25.9-23.2 6.8-6.1 14.6-13.1 17.4-15.6 2.8-2.5 10.3-9.2 16.6-14.9 6.3-5.7 15.1-13.5 19.5-17.5 24.8-22.3 32-28.5 33-28.5.7 0 3.4 2.4 6.1 5.2 2.6 2.9 10 10.9 16.3 17.7 6.4 6.8 12.1 12.9 12.6 13.5 1.4 1.6 10.8 11.7 26.1 28.1 7.1 7.7 15.9 17.1 19.4 21 3.5 3.8 10.4 11.3 15.4 16.6 5 5.2 11.4 12.1 14.3 15.2 2.9 3.1 5.7 5.7 6.3 5.7.5 0 1 .4 1 .9 0 2.6 13.4 8.1 19.5 8.1 11.8 0 24.5-9.8 27.6-21.4 1.8-6.6.5-16.7-2.8-21.8-1.5-2.3-3-4.8-3.3-5.4-.3-.6-5.4-6.4-11.5-12.9-6-6.5-12.1-12.9-13.4-14.4-1.3-1.4-4.4-4.9-7-7.6-2.6-2.8-8-8.6-12.1-13-4-4.4-10.1-10.9-13.5-14.5-3.4-3.6-11.9-12.8-19-20.5-7.1-7.7-18.3-19.8-25-26.8-6.6-7-12.1-13.2-12.3-13.6-.1-.5 3.4-4.1 8-8.2 4.5-4.1 10.9-9.9 14.3-12.9 3.3-3 9.9-8.9 14.5-13 7.1-6.3 14.2-12.7 19.6-17.5.6-.6 4.6-4.2 8.9-8 4.4-3.9 10.9-9.7 14.5-13 8.8-8 13.1-11.8 29-26 7.4-6.6 14-12.5 14.6-13 2.4-2.3 8.3-11.8 9.4-15.1 1.7-5.1.8-16-1.8-20.9-2.7-5.3-8.1-10.6-13.8-13.5-6.1-3-17.2-3.1-23-.2-7.7 3.8-9.6 5-13.7 8.9-2.3 2.1-10.5 9.5-18.2 16.3-7.7 6.9-14.5 12.9-15.1 13.5-.6.5-4.8 4.4-9.4 8.5-4.6 4.1-11.1 10-14.5 13-3.3 3-9.9 8.9-14.5 13-7.1 6.3-14.2 12.7-19.6 17.5-.6.5-4.6 4.1-9 8-4.3 3.8-10.6 9.6-14 12.7-3.3 3.2-6.5 5.8-7 5.7-.5-.1-3.8-3.3-7.4-7.2-3.5-4-11.7-12.9-18.2-19.8s-12.7-13.7-13.9-15c-1.1-1.3-4.4-4.9-7.3-7.9-5.8-6.2-16.9-18.1-26.6-28.6-3.6-3.9-11.9-12.8-18.5-20-23-24.8-26.8-27.5-39.4-27.3-4.2.1-8.5.4-9.6.6zM71 427.7c-1.4.3-2.9.8-3.5 1.3-.5.4-2.1 1-3.5 1.3-4.2 1.1-14 11.6-14 15 0 .7-.6 1.9-1.2 2.6-1.6 1.5-1.7 17.9-.1 18.9.5.4 1.3 1.9 1.7 3.4.3 1.6 1.1 2.8 1.6 2.8.6 0 1 .5 1 1.1 0 1.5 5.7 8.6 13.1 16.4C80.9 506 91 516.8 93.6 519.9c1.6 1.9 6.1 6.8 10.1 10.8 4 4.1 7.3 7.6 7.3 7.8 0 .2 4 4.6 8.9 9.7s10.2 10.9 11.7 12.8c1.6 1.9 6.3 7 10.4 11.2 14.5 15 20.5 21.8 20.2 23-.2.7-1.3 1.9-2.5 2.7-2.6 1.8-12.7 10.9-21.4 19.2-3.4 3.2-6.5 5.9-6.9 5.9-.3 0-3.4 2.6-6.8 5.9-3.3 3.2-8.3 7.8-11.1 10.1-2.7 2.4-6 5.4-7.2 6.6-1.2 1.3-2.5 2.4-2.8 2.4-.3 0-1.8 1.2-3.3 2.7-2.8 2.8-5.5 5.3-18.6 16.8-3.8 3.3-9 8.1-11.6 10.6-2.6 2.5-6.1 5.6-7.6 6.8-3.2 2.5-18.2 16.1-22.3 20.2-4.1 4.1-6.9 8.2-10.3 15.1-1.1 2.4-1 14.4.1 16.6.6.9 1.2 2.8 1.5 4.2.6 2.8 8.3 11.3 13.1 14.5 2.5 1.7 4.7 2 14.3 2 6.4 0 11.6-.4 12-1 .4-.6 2.5-1.9 4.7-3s5.4-3.3 7.1-5c1.7-1.6 5-4.7 7.5-6.8 12-10.4 17.8-15.7 23.7-21.5 3.5-3.4 6.7-6.2 7.1-6.2.4 0 3.3-2.5 6.5-5.5 3.1-3 5.9-5.5 6.3-5.5.3 0 1.5-1 2.7-2.3 2.2-2.2 4.7-4.5 20.5-18.7 4.6-4.1 9.6-8.6 11-10 1.5-1.4 4.2-3.8 6.1-5.4 4.6-3.8 18-15.9 24.2-21.9 2.7-2.6 5.2-4.7 5.7-4.7 1 0 32.9 33.3 40.2 42 1.1 1.4 6.1 6.8 11.1 12 4.9 5.2 12.7 13.5 17.3 18.5 4.6 4.9 10.7 11.5 13.6 14.5 2.8 3 8.6 9.3 12.8 13.9 14.7 16.3 26.2 27.1 29 27.1.5 0 1.1.5 1.3 1.2.3.7 3.8 1.3 9.6 1.6 11.4.5 16.6-1.2 22.6-7.3 6.1-6.4 6.7-7.2 7.3-11 .3-1.9 1-3.5 1.4-3.5.5 0 .9-3.4.9-7.5 0-4.3-.4-7.5-1-7.5-.5 0-1-1.1-1-2.4 0-1.3-.9-3.5-2-4.9-1.1-1.4-2-2.9-2-3.4s-4.6-5.8-10.2-11.8c-5.7-5.9-12.1-12.8-14.3-15.3-2.2-2.5-7.5-8-11.7-12.4-4.3-4.4-7.8-8.2-7.8-8.5 0-.3-2.4-3-5.2-6-2.9-3-7.3-7.7-9.8-10.3-2.5-2.7-8.4-9.1-13.2-14.2-12.5-13.4-17-18.3-25.6-27.7-4.2-4.6-9.9-10.6-12.5-13.3l-4.9-5 4.6-4.1c2.5-2.3 8.4-7.6 13.1-11.7 4.7-4.1 11.3-10 14.5-13 3.2-3 7.1-6.6 8.7-7.9 5-4.2 18.7-16.5 21.5-19.4 1.5-1.5 3-2.7 3.3-2.7.3 0 3.2-2.7 6.5-5.9 3.3-3.3 6.6-6.4 7.4-6.8 1.6-.9 15.7-13.6 22.8-20.6 2.7-2.6 5.2-4.7 5.6-4.7.4 0 3-2.3 5.7-5.1 2.8-2.7 6.5-6 8.2-7.2 1.8-1.2 3.3-2.6 3.3-3 0-.5 1.3-2.5 3-4.5 1.6-2.1 3.2-5.2 3.6-7 .4-1.7 1-3.2 1.5-3.2 1.2 0 1.2-14.7 0-15.4-.5-.3-1.2-2.1-1.5-3.9-1.2-6.6-13.2-16.7-19.8-16.7-1.6 0-2.8-.5-2.8-1 0-.6-2-1-4.4-1-2.5 0-4.8.4-5.1 1-.3.5-1.6 1-2.7 1-3.3 0-12.2 4.9-17.1 9.4-2.4 2.3-7.5 6.8-11.2 10.1-3.8 3.3-10 8.9-13.9 12.4-3.9 3.5-10.4 9.4-14.5 13-4.1 3.6-9.7 8.7-12.5 11.3-2.8 2.6-7.3 6.6-10.1 8.9-2.7 2.3-6.2 5.5-7.6 7-1.4 1.6-2.9 2.9-3.4 2.9-.4 0-1.7 1-2.9 2.2-1.2 1.3-6 5.7-10.6 9.8-4.6 4.1-9.7 8.7-11.2 10.2-1.5 1.6-2.9 2.8-3.2 2.8-.3 0-3.3 2.7-6.8 5.9s-7.8 7.2-9.7 8.9l-3.5 2.9-6-6.2c-3.4-3.4-8.1-8.4-10.5-11.1-9.1-10.1-25.9-28-33.3-35.6-4.3-4.4-7.8-8.2-7.8-8.5 0-.5-2.2-2.9-13.5-14.8-3.3-3.5-10-10.7-15-16.1C105 442.5 98.7 436 97.8 436c-.5 0-1.9-1.1-3.1-2.4-1.3-1.4-3.6-2.8-5.3-3.2-1.6-.4-3.1-1.1-3.4-1.5-.7-1-11.7-1.9-15-1.2zM463.5 429.7c-2.5.7-6.3 3.1-9.9 6.2-10.1 9.1-12.2 26-4.6 36.9 1.7 2.3 3 4.7 3 5.2s.6 1.3 1.3 1.7c.7.4 6.8 6.9 13.6 14.3 6.9 7.4 15.7 16.9 19.5 21 3.9 4.2 12.1 12.9 18.1 19.5 6.1 6.6 14.8 16 19.5 21 25.1 26.7 36.6 39.4 35.9 39.8-.5.3-30.2 26.9-30.9 27.7-.3.3-2.5 2.3-5 4.4-2.5 2.1-6.7 6-9.5 8.5-2.7 2.5-13.3 12-23.5 21.1-10.2 9-20.3 18.1-22.5 20.1-2.2 2-8.9 8-15 13.4-14.1 12.4-22.1 21-24.7 26-2.5 5-3.4 14.6-1.9 20.1 2.5 9.2 10.5 17.1 20.3 20 12.3 3.7 21.3-.3 40.9-17.9 7.4-6.7 19.1-17.2 25.9-23.2 6.8-6.1 14.6-13.1 17.4-15.6 2.8-2.5 10.3-9.2 16.6-14.9 6.3-5.7 15.1-13.5 19.5-17.5 24.8-22.3 32-28.5 33-28.5.7 0 3.4 2.4 6.1 5.2 2.6 2.9 10 10.9 16.3 17.7 6.4 6.8 12.1 12.9 12.6 13.5 1.4 1.6 10.8 11.7 26.1 28.1 7.1 7.7 15.9 17.1 19.4 21 3.5 3.8 10.4 11.3 15.4 16.6 5 5.2 11.4 12.1 14.3 15.2 2.9 3.1 5.7 5.7 6.3 5.7.5 0 1 .4 1 .9 0 2.6 13.4 8.1 19.5 8.1 11.8 0 24.5-9.8 27.6-21.4 1.8-6.6.5-16.7-2.8-21.8-1.5-2.3-3-4.8-3.3-5.4-.3-.6-5.4-6.4-11.5-12.9-6-6.5-12.1-12.9-13.4-14.4-1.3-1.4-4.4-4.9-7-7.6-2.6-2.8-8-8.6-12.1-13-4-4.4-10.1-10.9-13.5-14.5-3.4-3.6-11.9-12.8-19-20.5-7.1-7.7-18.3-19.8-25-26.8-6.6-7-12.1-13.2-12.3-13.6-.1-.5 3.4-4.1 8-8.2 4.5-4.1 10.9-9.9 14.3-12.9 3.3-3 9.9-8.9 14.5-13 7.1-6.3 14.2-12.7 19.6-17.5.6-.6 4.6-4.2 8.9-8 4.4-3.9 10.9-9.7 14.5-13 8.8-8 13.1-11.8 29-26 7.4-6.6 14-12.5 14.6-13 2.4-2.3 8.3-11.8 9.4-15.1 1.7-5.1.8-16-1.8-20.9-2.7-5.3-8.1-10.6-13.8-13.5-6.1-3-17.2-3.1-23-.2-7.7 3.8-9.6 5-13.7 8.9-2.3 2.1-10.5 9.5-18.2 16.3-7.7 6.9-14.5 12.9-15.1 13.5-.6.5-4.8 4.4-9.4 8.5-4.6 4.1-11.1 10-14.5 13-3.3 3-9.9 8.9-14.5 13-7.1 6.3-14.2 12.7-19.6 17.5-.6.5-4.6 4.1-9 8-4.3 3.8-10.6 9.6-14 12.7-3.3 3.2-6.5 5.8-7 5.7-.5-.1-3.8-3.3-7.4-7.2-3.5-4-11.7-12.9-18.2-19.8s-12.7-13.7-13.9-15c-1.1-1.3-4.4-4.9-7.3-7.9-5.8-6.2-16.9-18.1-26.6-28.6-3.6-3.9-11.9-12.8-18.5-20-23-24.8-26.8-27.5-39.4-27.3-4.2.1-8.5.4-9.6.6zM983 428c-10.3 1-22.2 3.1-25.7 4.6-1.7.8-3.8 1.4-4.6 1.4-.8 0-6.9 2.2-13.5 5-12 4.9-24.5 12-35.2 19.9-5.7 4.3-29 26.9-29 28.2 0 .4-1.8 2.9-4 5.4-2.2 2.5-4 5-4 5.5s-1.3 2.9-2.9 5.2c-6.7 10-9.1 14-9.1 15.2 0 .8-.6 1.9-1.4 2.5-.8.7-1.7 2.4-2 3.9-.7 2.9-3.7 9.4-4.7 10.2-.3.3-.9 1.8-1.2 3.5-.3 1.6-1.5 5.7-2.6 9-3.4 9.6-6 21.4-7.7 35.1-.8 7.1-1.5 13.8-1.5 14.9.1 1.1.1 3.6 0 5.5-.1 5.7 0 6.2.5 13.5 1.2 17.2 1.9 23.2 3.2 26.4.8 1.8 1.4 4.5 1.4 5.8 0 3 3.9 16.4 5.1 17.7.5.6.9 1.8.9 2.8 0 1 .9 3.5 2 5.5 1.1 2.1 2 4.3 2 4.9 0 1.2 6.3 13.8 7.8 15.7.6.7 2.1 3.3 3.4 5.8 2.2 4.4 3.1 5.7 10 14.6 7.4 9.6 11.5 14.1 17.5 19.3 3.5 3 7.1 6.2 8.1 7.1 1.4 1.4 13.3 9.6 19.7 13.6 2 1.2 11.1 5.7 15 7.3 1.1.4 4.1 1.8 6.6 2.9 2.5 1.2 5.3 2.1 6.3 2.1.9 0 2.6.5 3.6 1 1 .6 6.5 2 12.2 3.1 13.3 2.8 41.1 3 52.8.5 4.1-.9 8.4-1.6 9.5-1.6 1.1 0 3.3-.7 4.9-1.5 1.5-.8 3.7-1.5 4.9-1.5 1.1 0 4.1-1 6.6-2.1 2.5-1.2 5.5-2.5 6.6-3 11.7-4.7 22.2-10.7 33.5-19.1 7.8-5.8 24.4-21.7 28.8-27.8 1.5-1.9 4.1-5.2 5.9-7.3 1.8-2 3.3-4.1 3.3-4.6s1.7-3.5 3.9-6.7c5.7-8.8 12.1-21 12.1-23.2 0-1.1.5-2.2 1.1-2.4 1.3-.4 8.9-22.4 8.9-25.9 0-1.4.5-3 1.1-3.6 1.2-1.2 2.2-7.3 4.4-25.3 2.4-21.2 0-56.7-4.6-67.5-.5-1.1-1.3-3.8-1.8-6-2.5-10.9-9.7-27.6-17.6-40.9-4.2-7.1-13.4-19.8-16-22.1-.6-.6-2.6-2.9-4.4-5.3-1.8-2.3-3.7-4.2-4.2-4.2s-2.3-1.6-4-3.5c-1.7-1.9-5.8-5.5-9.2-8-3.4-2.5-7.5-5.5-9.1-6.8-6.8-5.3-23.1-13.7-26.4-13.7-1.2 0-2.2-.4-2.2-.9s-1-1.2-2.2-1.6c-1.3-.3-3.2-1-4.3-1.4-6.6-2.6-13.7-4.4-19-4.8-3.3-.3-6.8-1-7.7-1.5-2.2-1.1-23.2-1.6-31.8-.8zm28.3 62.5c2 .8 4.9 1.5 6.4 1.5s3.7.7 4.7 1.5c1.1.8 2.6 1.5 3.4 1.5 1.4 0 9.7 3.7 11.7 5.3 5.8 4.4 10.5 7.7 11 7.7 2.6 0 20.1 21.1 23.8 28.6 1.1 2.4 2.5 4.4 2.9 4.4.4 0 .8.8.8 1.8s.6 2.6 1.3 3.7c1.4 2.1 5.7 15 7.6 22.5 1.5 6.3 2.9 25.9 2.5 36-.3 8.1-1.7 16.6-3.4 22-.5 1.4-1.1 4.2-1.5 6.2-.3 2-1.2 5-2 6.5s-1.5 3.8-1.5 5c0 1.2-.5 2.5-1.1 2.9-.6.3-2.2 3-3.4 5.9-2.4 5.3-8.3 15.6-9.6 16.5-.3.3-1.8 2.2-3.1 4.2-3.6 5.3-10.3 12.1-17.8 18-3.6 2.9-6.6 5.5-6.8 6-.2.4-.8.8-1.4.8-.5 0-3 1.2-5.6 2.8-5.6 3.3-17.7 8.2-20.1 8.2-.9 0-2.2.5-2.8 1.1-.6.6-7.6 1.3-16.2 1.6-12.8.5-16.1.3-21.4-1.2-10.6-3-18.1-5.8-19.8-7.2-.8-.7-2-1.3-2.6-1.3-2.4 0-26.3-19.5-26.3-21.5 0-.3-2-3.1-4.4-6.2-8.8-11.6-16.8-30.6-19.7-46.8-1.5-8.7-2.1-41.5-.8-43.1.6-.7 1.4-3.4 1.9-6.1 1.3-7.3 3.6-15.7 4.9-18.1.6-1.1 1.1-2.8 1.1-3.7 0-.9.9-2.8 2-4.2 1.1-1.4 2-3.2 2-4 0-.8 1.4-3.5 3-6 1.7-2.4 3-4.7 3-5 0-1.4 9.8-14.1 15.3-19.7 14.6-14.8 30.7-23.8 50.2-28.1 8.6-1.9 27.3-1.9 31.8 0zM67.5 833.7c-2.5.7-6.3 3.1-9.9 6.2-10.1 9.1-12.2 26-4.6 36.9 1.7 2.3 3 4.7 3 5.2s.6 1.3 1.3 1.7c.7.4 6.8 6.9 13.6 14.3 6.9 7.4 15.7 16.9 19.5 21 3.9 4.2 12.1 12.9 18.1 19.5 6.1 6.6 14.8 16 19.5 21 25.1 26.7 36.6 39.4 35.9 39.8-.5.3-30.2 26.9-30.9 27.7-.3.3-2.5 2.3-5 4.4-2.5 2.1-6.7 6-9.5 8.5-2.7 2.5-13.3 12-23.5 21.1-10.2 9-20.3 18.1-22.5 20.1-2.2 2-8.9 8-15 13.4-14.1 12.4-22.1 21-24.7 26-2.5 5-3.4 14.6-1.9 20.1 2.5 9.2 10.5 17.1 20.3 20 12.3 3.7 21.3-.3 40.9-17.9 7.4-6.7 19.1-17.2 25.9-23.2 6.8-6.1 14.6-13.1 17.4-15.6 2.8-2.5 10.3-9.2 16.6-14.9 6.3-5.7 15.1-13.5 19.5-17.5 24.8-22.3 32-28.5 33-28.5.7 0 3.4 2.4 6.1 5.2 2.6 2.9 10 10.9 16.3 17.7 6.4 6.8 12.1 12.9 12.6 13.5 1.4 1.6 10.8 11.7 26.1 28.1 7.1 7.7 15.9 17.1 19.4 21 3.5 3.8 10.4 11.3 15.4 16.6 5 5.2 11.4 12.1 14.3 15.2 2.9 3.1 5.7 5.7 6.3 5.7.5 0 1 .4 1 .9 0 2.6 13.4 8.1 19.5 8.1 11.8 0 24.5-9.8 27.6-21.4 1.8-6.6.5-16.7-2.8-21.8-1.5-2.3-3-4.8-3.3-5.4-.3-.6-5.4-6.4-11.5-12.9-6-6.5-12.1-12.9-13.4-14.4-1.3-1.4-4.4-4.9-7-7.6-2.6-2.8-8-8.6-12.1-13-4-4.4-10.1-10.9-13.5-14.5-3.4-3.6-11.9-12.8-19-20.5-7.1-7.7-18.3-19.8-24.9-26.8-6.7-7.1-12.2-13.2-12.4-13.6-.1-.5 3.4-4.1 8-8.2 4.5-4.1 10.9-9.9 14.3-12.9 3.3-3 9.9-8.9 14.5-13 7.1-6.3 14.2-12.7 19.6-17.5.6-.6 4.6-4.2 8.9-8 4.4-3.9 10.9-9.7 14.5-13 8.8-8 13.1-11.8 29-26 7.4-6.6 14-12.5 14.6-13 2.4-2.3 8.3-11.8 9.4-15.1 1.7-5.1.8-16-1.8-20.9-2.7-5.3-8.1-10.6-13.8-13.5-6.1-3-17.2-3.1-23-.2-7.7 3.8-9.6 5-13.7 8.9-2.3 2.1-10.5 9.5-18.2 16.3-7.7 6.9-14.5 12.9-15.1 13.5-.6.5-4.8 4.4-9.4 8.5-4.6 4.1-11.1 10-14.5 13-3.3 3-9.9 8.9-14.5 13-7.1 6.3-14.2 12.7-19.6 17.5-.6.5-4.6 4.1-9 8-4.3 3.8-10.6 9.6-14 12.7-3.3 3.2-6.5 5.8-7 5.7-.5-.1-3.8-3.3-7.4-7.2-3.5-4-11.7-12.9-18.2-19.8s-12.7-13.7-13.9-15c-1.1-1.3-4.4-4.9-7.3-7.9-5.8-6.2-16.9-18.1-26.6-28.6-3.6-3.9-11.9-12.8-18.5-20-23-24.8-26.8-27.5-39.4-27.3-4.2.1-8.5.4-9.6.6z"/></svg>