<svg version="1" xmlns="http://www.w3.org/2000/svg" width="1392" height="1392" viewBox="0 0 1044.000000 1044.000000"><path d="M26.5 70.4C21.9 74.9 21 75 13.3 72c-3.3-1.3-4.8 1.2-4.5 7.9.1 3.1 1.1 8.8 2.2 12.6 1.1 3.9 2.2 7.7 2.5 8.5.2.8.4 1.6.5 1.7.2.2.3.6.5 1 1 3.8 13.8 29.6 15.5 31.3.3.3 3.7 5.2 7.5 10.9 3.9 5.8 7.5 10.9 8 11.5.6.6 3 3.8 5.5 7.1s4.7 6.2 5 6.5c.3.3 3 3.4 6 7 3 3.5 6.2 7.2 7 8 .8.9 4.9 5.4 9.1 10.1 4.2 4.6 10.8 11.7 14.6 15.7l7 7.4-4.3 8.5c-9.4 19-13.2 36-12.9 57.7.3 18.2 3.1 29.1 11.6 44.6 1.6 3 7.4 10.6 10.4 13.6 6.3 6.5 18.5 13.7 27.5 16.3 2.5.7 5.7 1.7 7.2 2.2 2.8.8 34.5.5 40.3-.4 13.7-2.2 26.6-5.4 34.3-8.7 4.8-2.1 7.7-3.5 8.2-4 .3-.3 1.9-1.2 3.5-2.1 1.7-.8 4-2.2 5.3-3 2-1.2 2.5-1.2 3.5.1.7.8 5 4.7 9.7 8.5 8.9 7.3 11.4 9.4 16.1 13.5 1.6 1.4 3.6 3.1 4.5 3.9 2 1.7.3 3-3.4 2.4-1.5-.2-3.1-.4-3.7-.4-.5 0-19 .3-41 .5-66.4.9-99.2 1.7-121.5 3-9.7.6-22.4 1.7-25 2.1-1.4.2-4.9.7-7.9 1-3 .4-6.3.9-7.5 1.1-1.2.3-3.2.7-4.6 1-1.4.3-2.6.9-2.8 1.5-.2.5-.9.9-1.7.9-1.5 0-3.8 2.6-4.1 4.6-.1.8.1 1.4.6 1.4 1.1 0 3 5.7 3 8.9 0 1.5-.6 3.5-1.3 4.6-2.7 3.9-2.6 6.1.3 7.8 1.5.9 3.8 1.9 5.1 2.1 1.3.3 2.4.5 2.4.6 0 .1 1.4.3 3 .5 1.7.2 4.8.6 7 .9 10.3 1.4 16.6 1.8 43.5 3 20.4.9 90.3 1.8 152.7 2 55.5.1 63.3.3 63.4 1.6.1.8.3 2.6.4 4 .4 3 1.5 23.3 1.9 34.3.1 4.2.5 8 .9 8.3.3.3.2 1.7-.3 3s-.6 2.4-.2 2.4c.4 0 .7 2.4.8 5.3.1 2.8.4 10.1.7 16.2.4 6 .9 16.2 1.2 22.5.3 6.3.8 14.6 1 18.5.3 3.8.7 12.4 1 19 .2 6.6.7 14.9 1 18.5.5 6.7 1.2 19 2.1 39 .3 6.3.6 12.8.7 14.4l.2 3-11.5-.1c-6.3 0-32.6-.4-58.5-.8-75.7-1.1-160.5-.7-191 .9-8.3.5-22.9 1.7-25 2.1-1.1.2-2.6.4-3.2.4-.7.1-1.3.7-1.3 1.4 0 1.6 9.6 4.2 23 6.1 1.9.3 4.5.8 5.7 1 1.3.3 5 .6 8.3.8 3.3.2 6 .5 6 .8 0 .3 1 .6 2.3.6 2.2.1 10.9 1 18.2 1.8 6.2.8 16.7 1.8 20 2.1 6 .5 17.1 1.6 21 2 7.2.8 12.9 1.4 19 1.9 14.8 1.3 21.3 1.8 25 2.1 8.2.6 20.2 1.5 25.5 2 3 .3 8.4.7 12 1 3.6.3 8.5.7 11 .9 2.5.2 8.3.7 13 1.1 4.7.3 10.5.8 13 1 8.1.7 22.4 1.7 28 2 3 .2 8.4.6 12 .9 11.3 1 23.4 1.8 25.7 1.7 1.2 0 2.5.4 2.8 1 .9 1.4 1.7 22.6 1.9 48.1 0 11.5.5 20.8.9 20.8.5 0 .6.4.3.8-.7 1.2-.7 5.1-.2 41.2.7 46.8 1.8 73 4.1 102 .4 5.2.7 7.7 2 19.5 1.9 17.1 2.2 19.6 2.9 23 .3 1.6.8 5 1.2 7.5.3 2.5.7 5.3 1 6.2.3.9.7 2.7.9 4 1.4 7.1 1.8 8.9 3.7 15.3 2.2 7.5 3.6 10.1 4.9 8.8 1.4-1.4 1.9-6.6 2.5-25.8.3-10.5.7-24.6.9-31.5.2-6.9.7-21.3 1-32 .5-18.9.9-29.2 2-47 .3-4.7.7-13 1-18.5.2-5.5.7-14.7 1-20.5.9-16.4 1.4-25.6 2-37 .3-5.8.8-14.8 1.1-20 1-16.2 2.6-51.4 2.8-58.7l.1-4.1 7.5.4c4.1.2 10.4.6 14 .9 6.6.6 18.2 1.3 30 2 3.6.2 11 .7 16.5 1 5.5.4 12.9.8 16.5 1 3.6.2 6.5.4 6.5.5 0 .1 3.2.3 7 .5 17 .9 26 1.4 26 1.5 0 0 3.2.3 7 .5 3.9.2 10.8.7 15.5 1 4.7.3 12.3.7 17 1 4.7.3 11.7.7 15.5 1 7.3.5 21.1 1.3 35.5 2.1 4.7.2 11.2.6 14.5.8 3.3.2 11.9.7 19 1.1 14.5.8 17.8 1.8 18.1 5.5.7 10.6 1.6 22.4 2 27 .2 3 .6 8.4.9 12 .5 7.2 1.3 16.7 1.9 22 .3 1.9.7 6.4 1 10 .7 8 1.9 17.8 3.2 26.6.3 1.7.6 4.6.8 6.5.6 5.2 1.6 13.1 2.1 15.9.5 2.7 1.3 7.8 1.9 12.5.8 5.4 1.7 10.9 2.6 16 .5 2.7 1.2 6.7 1.5 8.9.3 2.1.7 4.2 1 4.6.3.5.7 2.1.9 3.7.5 3.4 2.2 11.9 3 15.3.4 1.4.9 3.8 1.1 5.5 1.3 7.2 7.8 31.9 10.9 41.5 5.7 17.4 9.2 25.3 13 29.4 2.3 2.3 3.2 2.7 5.9 2.2 1.7-.3 3.4-1.1 3.7-1.6 1-1.6 7.3-3.7 10-3.3 8.8 1.3 9.3.1 8.6-16.2-.3-7.2-.8-14.1-1.1-15.5-.3-1.4-.7-3.9-.9-5.5-.3-1.7-.7-4.4-1-6-.8-5.4-1.8-11.5-2.1-13.8-.2-1.2-.6-4.2-.9-6.7-.3-2.5-1-7-1.6-10-.5-3-1.1-7.1-1.4-9-1.3-9.3-1.9-13.7-2.2-15.5-.3-1.1-.7-4.3-1-7-.3-2.8-.7-5.7-1-6.5-.3-.8-.8-3.3-1-5.5-.2-2.2-.9-6.9-1.4-10.5-1-6.4-1.3-8.3-2.6-18.5-.3-2.8-.7-5.9-.9-7-.1-1.1-.6-4.9-1-8.5-.4-3.6-.9-7.6-1.1-9-.1-1.4-.6-5-.9-8-.3-3-.8-7.1-1-9-.6-4.8-1.8-19-1.9-21.8 0-1.2-.3-2.2-.8-2.2-.4 0-.5-.7-.2-1.5.5-1.1 2.6.1 8.8 5.2 4.4 3.7 9 7.5 10.1 8.5 1.1.9 4.9 4.1 8.5 7 3.6 2.9 7.2 5.9 8 6.5 13.5 11.3 18.6 15.3 19.2 15.3 1.4 0 .9 3-1.3 7.3-1.2 2.3-2.4 4.4-2.8 4.7-.3.3-1.1 1.8-1.8 3.5-.6 1.6-2.5 6.2-4.1 10.2-2.9 6.8-6.9 19.6-7.8 25.2-.3 1.4-.7 3.3-.9 4.1-.3.8-.8 3.8-1.1 6.5-.3 2.8-.8 6.1-1 7.5-.5 3.9-.5 29.2.1 32 .2 1.4.7 4.5 1 7 2.1 17.6 10.1 35.7 20.6 47.2 9.3 10 23 16.1 35.9 16 16.7-.1 42.9-3 52.2-5.8.9-.3 2.5-.6 3.5-.8 8.1-1.6 22.3-6.2 30-9.7 2.3-1 4.6-1.9 5.1-1.9 1.9 0 17.9-9.4 25.9-15.2 5.1-3.6 8.8-5.6 9.5-5.2 1.5.9 37.1 27.7 37.8 28.4.9 1 12.2 8.4 16.9 11.2 13 7.6 7.5.4-24.2-31.5-20.3-20.4-20.8-21.2-17.4-25 3.8-4.1 10.1-17.2 12.3-25.2 1.1-4.3 1.8-10.3 1.8-15.5 0-11.7-.4-13.6-5.5-27-4-10.6-15.4-24.1-28.4-34-3.3-2.5-6.1-4.8-6.3-5.3-.2-.4-1-.7-1.8-.7s-1.4-.3-1.4-.8c0-.4-1-1.2-2.3-1.8-5.3-2.5-18.3-9.8-18.8-10.6-1.2-1.8.9-8.8 3.7-12.5 4.6-6 4.1-8.3-2.8-13.3-3.7-2.7-17.7-8.7-22.3-9.6-1.1-.2-3.3-.6-4.8-1-9.5-2-27.3-2-36.4.1-1.3.3-3.2.7-4.4 1-4.3.9-6.6 1.7-13.6 4.7-4 1.7-7.3 3.5-7.3 3.9 0 .5-.3.8-.7.7-.8-.2-4.9 1.8-6.7 3.3-4 3.3-9 6.9-9.5 6.9-.4 0-2-1.3-3.7-2.8-2.8-2.7-22.2-20.3-29.3-26.7-1.9-1.6-4.7-4.1-6.2-5.5-1.5-1.4-5.8-5.3-9.6-8.7-3.8-3.4-8.3-7.4-10-9-1.6-1.5-5.1-4.7-7.6-6.9-2.5-2.3-4.4-4.3-4.2-4.6.5-.4 3.1-.4 23.5.7 6.3.3 16.7.8 23 1.1 6.3.2 16 .7 21.5.9 5.5.3 15.3.7 21.9.9 6.5.3 12.1.7 12.3 1 .3.3 1.4.1 2.4-.5 1.1-.5 1.9-.6 1.9-.2 0 .8 11.6 1.4 31.2 1.7 4.9 0 8.8.5 8.8.9s.8.3 1.9-.2c1-.6 2.1-.8 2.4-.5.3.4 5.9.8 12.4.9 6.5.2 22.6.7 35.8 1.1 32.3 1 107.8 1.1 119 .1 10.3-.9 15.1-1.6 21.5-3.2 5.4-1.4 6.9-4.8 4.4-9.6-1.8-3.6-1.8-7.9.2-10.7 2.2-3.2 2.5-6 .8-7.6-1.5-1.6-9.3-4-16.4-5.1-2.5-.4-5.4-.9-6.5-1.1-1.1-.2-4.5-.6-7.5-.9-3-.3-7.1-.8-9-1.1-4.2-.6-14.5-1.4-36.5-2.9-3.3-.2-8.9-.6-12.5-.9-7.8-.7-19.5-1.5-31-2.1-4.7-.3-11.9-.7-16-1-4.1-.3-13.3-.7-20.5-1-7.1-.3-17-.8-22-1-10.2-.5-34.1-1.5-49-2-5.5-.2-16.3-.6-24-.9-7.7-.3-21.9-.9-31.5-1.2-9.6-.3-21.5-.7-26.5-.9-46.9-1.8-46.1-1.8-47.1-2.8-.4-.4-.8-4.6-1-9.4-.1-4.9-.3-8.8-.4-8.8-.1 0-.3-3.6-.5-8s-.6-12.7-.9-18.5c-.3-5.8-.8-17.3-1.1-25.5-.3-8.3-.8-20.2-1.1-26.5-.2-6.3-.7-18.7-.9-27.5-.2-8.8-.7-27.7-1-42-1.2-46.8-1.3-53-.9-54.6.4-1.4 2.2-1.7 11.7-1.9 13.8-.2 28.7-.6 57.2-1.5 12.1-.3 30.3-.8 40.5-1.1 10.2-.2 23.5-.6 29.5-.9 6.1-.3 15.7-.7 21.5-.9 5.8-.3 15.2-.8 21-1.1 5.8-.4 11.9-.8 13.5-.8 1.7-.1 3.3-.6 3.7-1.2.5-.6.8-.5.8.3 0 .7.4 1.1.8.8.8-.5 6.7-.9 29.2-2.1 5.2-.3 12.5-.8 16.1-1.1 3.7-.2 12.4-.7 19.5-.9 7.1-.3 12.9-.5 12.9-.6 0-.3 33.1-.5 33.7-.2.9.5 38.2 1.7 41.6 1.4 2.6-.2 1-1.8-4.5-4.5-3.2-1.6-5.9-2.8-6.1-2.7-.1.1-1.8-.5-3.7-1.3-1.9-.8-3.5-1.3-3.5-1.1 0 .3-1.2 0-2.7-.6-1.6-.6-3.6-1.3-4.5-1.5-5.8-1.3-10.4-2.3-14.3-2.9-1.1-.2-5.4-.8-9.5-1.5s-9.3-1.4-11.5-1.6c-2.2-.2-5.8-.6-8-.9-5.2-.7-17.6-1.5-29.3-2-5.2-.2-9.6-.6-9.9-.9-.3-.3-1.3-.1-2.3.4-1 .5-2 .6-2.4.2-.7-.6-8.4-.9-33.7-1.1-8.9-.1-9.7-.3-10.8-2.4-3-5.6-15.5-24.1-20.8-30.7l-6-8c-2.6-3.6-5-6.7-5.3-7-.3-.3-2.5-3.2-5-6.5s-4.9-6.3-5.5-6.7c-1.2-.9 3.3-5.8 5.2-5.8.8 0 1.1-.5.8-1-.3-.6 0-1 .7-1s2.6-1.1 4.2-2.5 3.2-2.5 3.5-2.5c.3 0 1.9-1.1 3.5-2.5 1.6-1.3 5.1-3.9 7.7-5.6 2.7-1.7 4.9-3.5 4.9-4s.4-.9 1-.9c.5 0 1.8-.6 2.7-1.4 1-.8 7.4-5.9 14.3-11.2 6.9-5.4 12.7-10 13-10.4.3-.3 1.4-1.3 2.6-2.1 5.5-3.7 21.8-18.3 28.3-25.2 8.5-9.1 9.2-13.4 3.3-21.8-2.1-3-4.4-6.8-5.2-8.4-3.5-7.3-4.7-8.4-9.3-8-2.3.2-5.5.8-7.2 1.5-5.4 2.1-10 4.4-11.3 5.7-.7.7-1.9 1.3-2.7 1.3-.7 0-1.5.3-1.7.8-.1.4-2.8 2.4-5.8 4.4-5.9 3.8-19.2 13.8-25 18.7-1.9 1.7-5.7 4.9-8.5 7.1-7.4 6.1-14.6 12.2-17.1 14.5-1.2 1.1-3.8 3.3-5.9 5-2 1.6-5.1 4.3-6.9 6-8.1 7.3-15 13-15.7 12.9-2.4-.3-2.8-.5-3.3-2.2-.3-.9-1.9-3.3-3.6-5.2-1.6-1.9-3-3.8-3-4.2 0-.4-.7-1.4-1.6-2.2-3.4-3.5-38.4-55.4-38.4-57.1 0-.2-2.9-4.8-6.4-10.2-9.9-15.4-13.6-17.6-23.1-14.2-2.7 1-6.8 2.1-9 2.4-8.2 1.4-10.4 2.5-11.4 5.8-1.2 4.6-.4 13.2 1.9 20.7 2.4 7.4 13.7 31.1 15.4 32.2.6.4.7.8.1.8s-.5.4.1.8 3.3 4 5.9 8.1c2.7 4.1 5.4 8.2 6.1 9 .7.9 3.6 4.5 6.4 8.1 10.9 14 15.6 19.5 22.4 26.7 3.2 3.4 6.5 7.1 7.2 8.1 1.5 2.1 1.6 1.9-8.1 9.7-2.7 2.2-5.2 4.3-5.5 4.6-2.8 3.1-26.5 19.7-39.8 27.9-11 6.7-13.2 8.4-13.2 10.3 0 3.8 11.4 6 23 4.3 6.5-1 7.8-1.3 14.5-3.1 3.3-1 6.5-1.8 7-2 .6-.1 2.3-.7 3.8-1.3 1.6-.7 3-1.2 3.2-1.2.5 0 15.7-6.9 17.5-7.9.8-.5 7-3.7 13.7-7.2 13.3-6.8 12.9-6.8 18.8-1.3 7.3 6.8 16.1 14.1 30 24.9 6.1 4.7 12.1 9.3 13.4 10.4 2.4 1.9 2.3 1.9-15 1.5-9.6-.2-26.2-.6-36.9-.9-10.7-.3-24.8-.7-31.2-.8-6.5-.1-11.8-.5-11.8-.9s-1.3-.3-2.9.2c-1.6.4-3.1.6-3.4.4-.4-.4-24.7-1.2-56.4-1.8-7.3-.1-13.6-.6-14-1-.4-.4-.8-5.5-.8-11.4-.1-6-.4-11.3-.8-11.9-.4-.7-.3-1.4.2-1.8.7-.4.7-1.5.1-3.1-.6-1.4-.7-2.3-.2-2 .4.2.6-1.2.5-3.2-.2-2.1-.5-12-.8-22.2-.9-36.1-1.9-63.9-3-84-.2-3.6-.6-10.9-.9-16.2-.6-9.9-.9-14.1-2.2-25.8-.4-3.6-.7-7.9-.8-9.5-.1-1.7-.4-3.5-.7-4-.4-.6-.5-2-.4-3.3.1-1.2-.2-2.2-.7-2.2-.5 0-.6-.5-.3-1 .3-.6.3-1.6-.2-2.3-.8-1.2-.9-1.7-1.2-3.7 0-.5-.7-.7-1.5-.4-1.2.4-2.4 3.6-3 7.9-.1.5-.5 2.3-.8 4-.8 3.3-1.9 11.2-2.3 16-.2 1.6-.6 5.7-1 9-.3 3.3-.8 7.8-1 10-.1 2.2-.6 7.6-.9 12-.4 4.4-.9 10.8-1.2 14.2-.3 3.5-.7 8.6-.9 11.5-.5 7.7-1.5 19.6-2 25.3-.3 2.7-.8 8.6-1.1 13-.3 4.4-.7 10.5-.9 13.5-.2 3-.7 10.7-1 17-.4 6.3-.8 13.7-1 16.5-.2 2.7-.6 10.2-1 16.5-.4 6.3-.9 13.1-1 15-.2 1.9-.4 4.1-.4 4.9-.1 1.1-5.1 1.2-29.8.6-16.4-.3-41-.8-54.8-1-13.7-.2-38.9-.7-56-1-17-.3-50.1-.8-73.5-1.1-58.3-.8-58.8-.8-59.4-1.5-.4-.3-.9-6.6-1.1-14-.3-7.4-.8-19-1.1-25.9-.3-6.9-.7-17.9-.9-24.5-.6-17.1-1.5-35.8-2-44-.3-3.9-.7-11.1-1-16C359 219 359 219 357.4 202c-1.1-11.8-2.9-27.2-4-33.5-2.4-14-5.6-22.6-9-23.9-.8-.3-3.2.1-5.2 1-5.6 2.4-7 2.5-11.8.8-3.2-1.1-4.9-1.2-6.4-.4-2.2 1.2-4.2 7.5-4.4 13.7-.1 2.4-.4 4.3-.7 4.3-.3 0-.7 3.9-.9 8.7-.5 14.7-.5 85.3 0 85.3.3 0 .5 6.1.5 13.6s.3 13.8.6 14c.4.2.3 2.2-.1 4.4-.4 2.1-.5 4.2-.3 4.4.3.3.7 5.8.8 12.3.4 13 1.5 42 1.6 43.1.6 3.9-.7 4-4.6.4-1.7-1.5-6.8-5.9-11.5-9.9-4.7-3.9-9.4-8-10.5-9-1.1-1-5.4-4.7-9.5-8.3-4.1-3.6-7.7-6.7-8-7-.3-.3-3.4-3-7-6-11.7-9.9-11.3-9.4-11.7-15.2-.4-8.4-3.4-20.4-7.5-29.8-2.4-5.6-8.8-18-9.8-19-1.1-1.1-5-6.9-5-7.5 0-.7-10.4-13.4-16.3-19.9l-4.5-5 1.4-3.9c.8-2.2 1.4-4.7 1.4-5.6 0-1 1.4-3.9 3.1-6.6 3.8-5.9 4-9.2.8-11.7-1.3-1.1-3.1-2.4-3.9-3.1-1.5-1.2-9.7-5.1-11.2-5.3-.4-.1-.9-.2-1-.4-.2-.1-1-.3-1.8-.6-20.8-5.7-42.5-3.8-61.1 5.5l-8 4-15.7-15.7c-8.6-8.7-19.8-20.2-24.8-25.7C75.5 127.2 73 124.3 73 123c0-.6-.4-1-.8-1-.9 0-15.2-18.6-15.2-19.7 0-.4-.8-1.6-1.8-2.7C52.7 96.7 43 81.2 43 80c0-.6-.4-1-.9-1s-1.6-1.5-2.5-3.3c-2.2-4.3-6.2-8.7-8-8.7-.9 0-3.2 1.5-5.1 3.4zm168.6 148.5c1 1.3 1.9 2.9 1.9 3.7 0 .8.4 1.4.9 1.4s1.1.8 1.4 1.7c.4 1 1.8 3.6 3.1 5.8 1.4 2.2 3.3 5.7 4.2 7.7.9 2.1 2 3.8 2.5 3.8s.8.3.7.7c-.1.5 1.7 4.7 3.9 9.5 3.6 7.5 6.7 15.8 5.9 15.8-.2 0-1.4-.9-2.7-2.1-1.3-1.1-3.7-3-5.3-4.2-8.2-6.2-42.6-40.4-42.6-42.3 0-1.4 1.5-2 7-2.9 1.9-.3 3.5-.7 3.6-.8.1-.1 3.2-.2 6.9-.2 5.8 0 6.9.3 8.6 2.4zm-54.2 41.6c3.1 3 10.6 10.3 16.7 16.2 15.7 15.2 28.4 26.8 28.4 25.9 0-.3 1.2.8 2.8 2.2 1.5 1.5 5.4 4.9 8.6 7.7l5.9 4.9-4.9 1.3c-8.6 2.3-14.5 2.8-31.9 2.7-16.4 0-17.2-.1-22.6-2.7-6.1-2.9-10.8-8.5-13.5-15.9-2.1-5.8-2.5-24.5-.6-32.3.7-3.3 1.5-6.5 1.6-7 .1-.6.4-1.5.7-2 .4-.6.9-2.2 1.3-3.8.3-1.5.9-2.7 1.2-2.7.4 0 3.2 2.5 6.3 5.5zM637.4 430c-.2 12-1.3 50.5-1.5 50.5-.5 0-.9 32.3-1 86.7-.1 36.8-.4 66.8-.6 66.8-.2 0-1-.6-1.7-1.3-.7-.6-4.4-3.9-8.1-7.2-3.8-3.3-8.3-7.4-10.1-9-1.7-1.7-6-5.5-9.4-8.5-3.5-3-8-7.1-10.1-9-2.1-1.9-6.4-5.8-9.5-8.5-3.1-2.8-7.4-6.6-9.5-8.5-2-1.9-6.5-6-10-9s-8.3-7.3-10.7-9.6l-4.5-4.1 3.4-2.3c1.9-1.4 3.9-2.9 4.4-3.5.6-.6 3.7-3.1 7-5.5 10.3-7.6 28.5-26.7 28.5-29.9 0-.6.4-1.1.8-1.1 1.2 0 5.8-10.7 7.4-17 1.2-4.5 1.7-18 .8-20-.1-.3-.2-.8-.1-1.2.1-1.1-4-14.2-4.9-15.3-.5-.6-.9-1.2-.9-1.5-.3-2-2.7-7-3.3-7-.4 0-.8-.5-.8-1.1 0-2.2-14.5-22.7-22.3-31.4-1.9-2.2-3.4-4.2-3.2-4.6.3-.3 10.2-.7 22.2-.8 12-.1 21.8-.3 21.9-.4.1-.1 6-.2 13.1-.2h12.8l-.1 13.5zm-82.2-5c9.8 20.2 13.6 28.8 18.4 41.5 2.2 6.1 3.4 17.5 2.3 23-.9 4.2-6.1 11.5-12.1 16.9-6.7 6.1-24 18-35 24l-6.8 3.8-2.9-2.9c-1.5-1.5-4-3.7-5.3-4.8-1.4-1.1-5.8-4.9-9.8-8.5-4-3.6-8.1-7.2-9.2-8.1-1-.9-4.9-4.4-8.6-7.6-3.7-3.3-8.3-7.4-10.2-9.1-1.9-1.7-3.3-3.2-3-3.5 1.5-1.4 15-9.6 17.8-10.8 1.7-.8 3.2-1.7 3.2-2 0-.3.6-.6 1.3-.6.6-.1 3.9-1 7.1-2.2 3.3-1.2 6.1-1.9 6.4-1.6.3.2 1.3 0 2.2-.5 1-.5 3.4-1.2 5.3-1.4 2-.2 4.4-.7 5.4-1 1-.3 3.4-.8 5.3-1 12.7-1.8 24.8-5 27.9-7.4 2.8-2 3-3.7 1.9-13.7-.3-2.8-.1-6.2.5-7.8 2.4-7.2-1.2-9.9-16.3-12.4-5-.7-26.7-.9-33.5-.2-6.6.7-15.9 2.1-18.2 2.8-.2.1-.4.1-.5 0-.9-.2-16.3 5.8-21.3 8.3-7.7 3.9-17.9 10-18.3 11-.2.4-.8.8-1.3.8-.6 0-3.1 1.6-5.6 3.5-4.4 3.4-7.8 4.4-8.5 2.7-.1-.5-3.7-3.7-7.8-7.2s-7.7-6.7-8-7c-.3-.3-3.9-3.4-8-7-10.3-8.9-17.8-16.3-15.9-15.7.9.3 2.2 0 2.8-.6.8-.8 1.1-.8 1.1.2 0 .7.4 1 .9.7.5-.4 29-.9 63.2-1.2 34.3-.3 62.4-.6 62.5-.7.1-.1 6.2-.2 13.6-.2l13.3-.1 3.7 7.6zM374 463.1c1.9 1.7 5.5 4.8 8 6.8s5.2 4.3 6 5.1c.8.9 4 3.5 7 6 11.4 9.2 12.5 10.6 11.3 13.2-2.5 5-6.5 14.4-6.8 15.8-.2.8-1.1 3.7-2 6.5-1 3.1-1.8 9.6-2 17.5-.4 10.3-.1 13.8 1.6 20 5.6 20.8 18 34.9 37 42.4 3.5 1.4 7.8 2.8 9.4 3.2 5.4 1.1 21.9 1.3 28 .3 7-1.1 22.6-5.7 24-7 .5-.5 1.7-.9 2.7-.9 1 0 1.8-.5 1.8-1 0-.6.8-1 1.8-1s2.2-.4 2.8-.9c.5-.5 3.1-2.1 5.7-3.6l4.8-2.6 5.2 4c2.9 2.2 6.1 4.8 7.2 5.8 1.1 1 4.5 3.8 7.5 6.3s5.7 4.7 6 5c.5.5 11.3 9.6 13.8 11.5.7.5 3 2.6 5.1 4.5 2.1 1.9 5.3 4.6 7.1 6 1.8 1.4 4.9 4 6.9 5.8l3.6 3.3-25-.6c-13.7-.3-32.4-.8-41.5-1.1-9.1-.2-26.4-.7-38.5-.9-12.1-.3-34.8-.8-50.5-1.1-15.7-.3-33.3-.7-39.2-.7-6-.1-10.8-.4-10.9-.7-.1-.3-.3-16.5-.5-36-.4-41.5-1.1-80.1-1.4-81.5-.1-.6-.1-1.2 0-1.5.7-1.9.7-4.1-.1-4.5-.4-.3-.4-1.6.1-2.9.5-1.3.6-2.6.4-2.9-.9-.8-1.4-40.7-.6-40.7.4 0 2.3 1.4 4.2 3.1zm75 63.9c.3.3 2.8 2.3 5.5 4.4 2.8 2.2 5.5 4.4 6 5 .6.6 4.2 3.7 8 6.8 9.2 7.5 12.5 10.4 12.5 11.1 0 1-3.5 1.9-11.5 3.1-9.3 1.4-16.4.5-21-2.7-2.9-2.1-6.1-5.7-5.8-6.7.1-.3-.3-1.1-.9-1.7-.6-.7-.8-1.9-.5-2.8.4-.8.3-1.7-.2-1.9-.9-.6.2-10.1 1.9-15.1 1.2-3.6 1.2-3.6 3.3-1.8 1.2 1 2.4 2 2.7 2.3zm406.8 253.7c10 6.7 17.7 12.9 24.7 19.8 9.6 9.4 17.5 19.8 17.5 23 0 .7.4 1.6.9 1.9 2.3 1.5 4 14.8 2.7 21.6-.9 4.8-6.3 15.4-9.2 18.1l-2.4 2.3-4.2-4c-2.3-2.1-5.3-5-6.8-6.4-1.4-1.4-7.3-6.8-13-12s-12.1-11.1-14.1-13c-2-1.9-7.9-7.3-13-12s-10.5-9.6-11.9-11c-5.1-4.8-23.1-21.3-25.5-23.4-1.4-1.2-2.5-2.7-2.5-3.4 0-2.2 14-8.5 22-9.8 1.9-.3 3.6-.7 3.8-.9.1-.1 3.9-.3 8.4-.4l8.1-.2 14.5 9.8zm-67.3 28.9c3.8 3.1 7.2 5.9 7.5 6.2.3.4 1.2 1.1 2.1 1.7.9.5 6.3 4.8 12 9.5s11.2 9.2 12.3 10c1 .8 3.8 3.1 6.1 5s5.7 4.7 7.6 6.2c1.9 1.5 8.8 7.1 15.4 12.4 6.6 5.3 13.3 10.7 14.9 12 1.7 1.3 3.3 2.4 3.8 2.4.4 0 .8.7.8 1.5s.6 1.4 1.3 1.2c.6-.1 1.2.5 1.2 1.3 0 1.9-9.3 6.6-22 11-6.1 2.2-7.6 2.6-12.9 3.6-1.6.2-3.3.7-3.7.9-.4.3-2.2.7-4 1-1.9.2-4.3.6-5.4.9-2 .4-11.9 1.6-18.5 2.1-1.9.2-9.1.4-15.9.5-11.6.1-12.5 0-14.8-2.2-2.1-2-5-7.2-5.7-10.3-.1-.6-.5-1.9-.9-3-1.6-4.9-2-8.9-2.2-22.5-.2-8.1.2-15.3.7-16.4.6-1.1.6-1.6 0-1.3-.8.6.1-4.7 1.6-9.3.2-.8.6-2.4.8-3.5.9-5.3 2.8-11 5.5-17.2 1.1-2.4 2.4-5.4 2.9-6.8.5-1.4 1.3-2.5 1.7-2.5.5 0 3.9 2.5 7.8 5.6z"/><path d="M403.4 198c-1.8.4-4.5 1.6-6 2.7-2.7 1.9-12.5 7.1-14.1 7.5-1.8.4-4.3 3.6-4.6 5.8-.6 4 4.6 19.6 7.2 22 .4.3 1.3 1.8 2.1 3.5.8 1.6 1.8 3.2 2.1 3.5.3.3 2 2.6 3.7 5.2 1.8 2.5 3.8 5.2 4.4 6 .7.7 2.5 2.9 3.9 4.8 2.4 3.1 6.7 7.9 19.4 21.7l4.1 4.3-6.1 6.3c-8.9 9.4-10.7 11.6-14.8 18.3-4.1 6.5-4.8 8.8-5.1 14.9-.1 3.5.2 4 2.2 4.3 1.3.2 10.6-3.7 23-9.8 11.4-5.6 21.7-10.6 22.9-11.2 2.5-1.2 2-1.5 14.4 7.7 5.3 3.8 10.6 7.7 11.9 8.5 1.2.8 3.9 2.6 5.9 4 17.3 12.2 44.8 25.2 55.4 26.3 3.2.4 4 .1 4.6-1.7.5-1.1.6-2.8.3-3.6-.8-2.3-6.7-11.2-9.6-14.5-1.5-1.7-4.1-4.7-5.9-6.8-1.8-2.1-4.5-5.3-6.2-7.1-5.6-6.1-23-24.9-24.2-26.2-.7-.7-1.3-1.7-1.3-2.3 0-.6-.4-1.1-1-1.1-3.3 0 .9-3.4 5.5-4.5 1.2-.3 23.9-10.7 28-12.9 1.7-.9 3.5-1.6 4.2-1.6.6 0 1.3-.3 1.5-.8.2-.4 3-2 6.3-3.7 8.6-4.2 22.3-12.8 27.4-17.2 6-5.1 10.1-11 10.1-14.5 0-2.5-2.8-8-5-9.8-.4-.3-2.5-3.2-4.7-6.5-5.6-8.3-7.7-10-12.1-9.8-3.4.2-13.5 4-23.9 9.2-2.3 1.2-4.7 2.1-5.3 2.1-.5 0-1 .4-1 .8 0 .5-2 1.7-4.5 2.8-2.5 1-4.5 2.2-4.5 2.8 0 .5-.3.7-.6.3-.3-.3-2.3.4-4.3 1.7-2 1.3-6.3 3.8-9.6 5.6-3.3 1.8-7.2 4-8.7 4.9-4.4 2.6-23.1 14-26.1 15.8-3 2-2.8 2.1-12-9.1-1.8-2.2-4.6-5.5-6.3-7.5-1.7-2-7.7-9.5-13.5-16.6-17.4-21.8-22.5-26-29.5-24.5zM254.5 443.2c-5.5 2.2-10.4 4-11 4.2-6.1 1.9-88.2 42.9-96.2 48.2-1.3.8-2.3 1.2-2.3.9 0-.4-.7.1-1.6 1-.9.9-2.2 1.5-2.9 1.3-2.1-.5-12.7-14-22-28-11-16.7-13-18-23-16.5-2.2.4-7.1.9-11 1.2-8.5.6-10.5 1.2-10.5 3.1 0 .8-.4 1.4-.8 1.4s-.9 1-1 2.2c-.4 2.8-.5 7.1-.2 7.8 0 .3.3 2.3.4 4.6.9 11.4 11.4 31.8 23.3 45.3 2.9 3.3 3 3.7 1.6 5.3-.9 1-2 1.8-2.4 1.8-.8 0-21.5 14.6-23.7 16.7-.7.7-1.7 1.3-2 1.3-.4 0-2.1 1.2-3.8 2.7-1.7 1.6-5.5 4.8-8.5 7.3-7.9 6.7-19.8 19-22.8 23.5-1.4 2.2-2.9 4.2-3.2 4.5-1.5 1.2-5.8 10.8-6.3 13.9-.7 4.6.2 6.3 2.7 5.5 1.8-.6 10.3-5.7 20.3-12.2 1-.6 2.6-1.5 3.4-1.9.8-.3 2.7-1.5 4.3-2.5 1.5-1.1 2.7-1.6 2.7-1.3 0 .3 1.2-.2 2.8-1.3 1.5-1.1 4.5-2.8 6.7-3.8s4.6-2.4 5.3-3.1c.8-.7 1.8-1.1 2.3-.8.5.4.9.1.9-.4 0-.6.5-1.1 1-1.1.6 0 6.1-2.4 12.3-5.4 6.2-3 13.5-6.4 16.2-7.5 2.8-1.2 5.9-2.6 7-3.1 10.1-4.6 15.9-7 16.5-7 .5 0 14.5 9.1 31.1 20.2 27.4 18.1 41.6 28.3 45.9 32.7 4.2 4.3 13 11.1 15.2 11.6 2.2.6 2.7.2 3.6-2.2 1.2-3.7.7-10.2-1.6-17.8-4.1-13.6-15.5-29-39.4-53.3-6-6.1-9.8-10.6-9.2-11.1.5-.5 5.6-2.9 11.4-5.4 5.8-2.5 13.4-5.9 17-7.5 13.4-6.2 18.5-8.5 19-8.6 1.5-.4 32.3-16 36.5-18.6 2.8-1.7 5.7-3.3 6.5-3.7 1.7-.7 10.9-7.2 12.7-9 .7-.6 2.3-2 3.6-3 3.1-2.5 6.6-7.6 7.1-10.4.3-2.2-.8-5.7-2.3-6.9-1.3-1.1-5-6.9-7.4-11.6-1.4-2.8-3.2-5.6-4-6.3-2.5-2-9.7-.9-20.2 3.1zM827.5 454.6c-17.2 2.7-30.5 8-47.5 18.7-3.6 2.3-6.7 4.4-7 4.7-.3.3-3 2.4-6.1 4.7-7.7 5.9-26.9 26-26.9 28.2 0 .5-.3 1.1-.7 1.3-1.1.4-6.3 8.5-6.3 9.6 0 .5-.8 2-1.8 3.3-1.8 2.4-4.7 9.4-7.7 18.4-1.7 4.9-2.4 21.4-1.2 26 1.5 5.9 6.4 14.3 10.8 18.6 4.2 4.1 9.9 8.1 11.9 8.4.3 0 1 .3 1.5.7 3.7 2.3 24.7 4 27.5 2.3.6-.3 1-.2 1 .3 0 .6 2.7.2 6-.8s6-1.7 6-1.5c0 .2 3.8-.9 8.4-2.5 20.1-6.8 50.6-25.3 65.3-39.6 1.8-1.7 4.7-4.4 6.5-6 4.6-4.1 13-13.9 17.2-20.2 4.6-6.9 9.9-17.9 9.1-19.1-.3-.5-.1-1.2.5-1.6 1.3-.8 1.3-8.9 0-13.7-.6-2.1-2.7-5.1-5-7.2-3.9-3.5-4.8-5.1-3.2-5.8 1.6-.7 5.2-6.7 5.2-8.7 0-2.3-7.4-10.1-9.5-10.1-.8 0-1.5-.4-1.7-.8-.5-1.5-12.9-6-19.8-7.2-9-1.7-23-1.9-32.5-.4zm53.5 41.8c0 6.4-14.1 21.4-29.5 31.4-3.8 2.5-7.2 4.8-7.5 5.1-.6.7-8.3 4.9-18 9.8-4.1 2.1-7.8 4.2-8.2 4.8-.4.5-.8.7-.8.3 0-.4-1.5.1-3.2 1.1-3 1.6-9 3.9-12.1 4.5-.7.2-2.5.8-4.2 1.5-1.6.7-4.2 1.5-5.8 1.8-1.5.3-3 .9-3.3 1.4-.2.4-1.1.6-1.9.3-.8-.3-2-.2-2.7.2-1.9 1.2-8.1 1.8-15.5 1.5-3.9-.1-4.1-1.1-1.3-7.4 4-8.9 15.5-22.6 26.5-31.3 2.7-2.1 5.5-4.4 6.1-4.9.6-.6 2.8-1.9 5-3 2.1-1.1 4.1-2.3 4.4-2.6.6-.8 6.8-4 7.5-3.9.3 0 1.8-.6 3.4-1.5 11.4-5.9 28.4-8.3 53.2-7.6 1.4.1 3.4-.6 4.5-1.4 2.4-1.8 3.4-1.9 3.4-.1zM115 708.8c-2.1 2.6-2.2 3.1-2.5 12.2-.4 14.2 11 38 25.3 52.6 1.2 1.3 2.2 2.7 2.2 3.2s-3.5 3.6-7.7 6.8c-9.9 7.4-8.2 6-19.8 15.6-5.5 4.5-14.1 12.4-19.1 17.5C84.3 826 74 839.8 74 842.5c0 .8-.5 1.5-1.2 1.5-.6 0-.9.2-.6.6.3.3 0 2.4-.7 4.7-2.1 7.2.3 9.1 6.3 5.1 1.5-1 3.9-2.5 5.5-3.4 1.5-.8 7.2-4.3 12.7-7.8 5.5-3.4 10.3-6.2 10.6-6.2.3 0 1.8-.8 3.2-1.9 1.5-1 9.7-5.4 18.2-9.7 8.5-4.4 15.7-8.2 15.8-8.7.2-.4.7-.7 1.2-.7.4 0 6.5-2.7 13.4-6.1 7.1-3.4 13.1-5.7 13.8-5.3.7.4 5.7 3.6 11 7.1 5.4 3.4 10.2 6.3 10.7 6.3s1.1.4 1.3.8c.3.9 11.6 7.9 22.1 13.6 3.7 2 8.2 4.5 10 5.5 4.8 2.6 24.3 12.5 31.2 15.6 9.4 4.4 15 3.7 14-1.6-.7-3.3-5.1-12.1-7.3-14.5-1-1.1-2.1-2.5-2.3-3.1-1-2.8-23.4-25.9-41.8-43.1-3.5-3.3-6-6.5-5.7-7 .3-.6 2-1.3 3.6-1.7 1.7-.4 3-1.1 3-1.6s.3-.8.8-.7c.6.2 17.9-6.7 27.2-10.9 1.9-.9 4.1-1.6 4.8-1.6.6 0 1.2-.4 1.2-.9 0-.4.6-.8 1.4-.8.8 0 4.1-1.1 7.3-2.4 3.2-1.3 11.9-4.7 19.3-7.6 18.5-7.1 27-11.2 30-14.4 2.1-2.3 2.5-3.7 2.5-9.2.1-3.6-.3-6.8-.7-7-.5-.3-.6-1-.2-1.5.8-1.3 1.3-11 .6-12.7-1.4-3.8-14.7-6-24.5-4.1-2.8.6-7 1.3-9.2 1.5-2.1.3-4.3.8-4.7 1-.5.3-2 .8-3.5 1-1.5.3-3.2.9-3.9 1.5-.6.5-1.3.6-1.6.3-.6-.5-18.1 5.8-33.5 12.1-8.6 3.6-39.5 18.8-48.3 23.9-2.5 1.4-5 2.6-5.7 2.6-.7 0-3.5-2.8-6.4-6.3-2.8-3.4-6-7.2-7-8.5-1-1.2-1.9-2.5-1.9-2.8 0-.3-1.1-2-2.5-3.8-1.4-1.8-2.5-3.8-2.5-4.4 0-.6-.3-1.2-.8-1.4-.4-.2-2.4-2.9-4.5-6.1-4.2-6.4-8.2-10.6-10-10.8-.7-.1-7.4-.3-15-.4-13.6-.2-13.8-.2-15.7 2.3zM506.2 727c.5 1.7 1.4 3.3 1.9 3.6.5.3.9 1.2.9 2s-.4 1.2-1 .9c-2.1-1.3-31.6-.4-34.1 1.1-.3.2-1.9.5-3.5.8-1.6.3-5.6 1.5-8.9 2.6-3.3 1.1-6.8 2.2-7.7 2.5-6.3 1.5-28.2 14.1-37.3 21.5-12.4 10.1-27 27.7-33.8 40.5-3.4 6.5-7.7 16.5-7.1 16.5.3 0 0 .8-.5 1.8-3 5.6-5.4 30.7-3.7 38.7.3 1.1.8 4.1 1.2 6.7.3 2.7 1 4.8 1.3 4.8.4 0 .7.9.8 1.9.2 2.1 7.1 16.9 8.8 18.7.5.7 1.9 2.4 3 4 3.5 4.9 6.9 8.8 10.4 11.9 1.9 1.6 3.9 3.5 4.5 4 3.2 3.1 12.6 8.8 16.6 10 7.6 2.3 11.4 2.9 21.3 3 6.4.1 11.7-.2 11.7-.5 0-.4 1-.6 2.3-.5 1.2.1 4-.2 6.2-.7 7.2-1.5 29.5-9.1 29.5-10 0-.4.7-.8 1.5-.8 3.2 0 27-12.7 38.8-20.8 2.6-1.7 6.7-4.5 9.1-6.2 6.3-4.3 25-23 23-23-.3 0 .4-1.1 1.5-2.5 2.5-3.2 6.8-14.4 8-20.8.5-2.6.7-9.6.5-15.5-.2-10-.6-12.8-1.8-17-.3-.9-.7-2.8-1-4.2-.2-1.4-1-3.9-1.7-5.5-.6-1.7-1.3-3.7-1.5-4.5-.4-2.2-9.9-21.1-11.7-23.5-1.4-1.8-1.4-2.3.4-5.2 1.2-1.9 1.8-4.1 1.5-5.1-1.2-3.5-11.2-12-19.2-16.1-4.3-2.3-10.1-6.1-12.8-8.6-5-4.6-13.7-9.5-16.7-9.5-1.6 0-1.7.4-.7 3zm10.8 51.4c5.2.7 15.2 2.6 17.3 3.2 1.6.5 3.6 3.7 4.3 7.1.1.6.7 2.7 1.3 4.6 2.1 6.4 3.8 18.5 3.5 25.5-.8 20.6-8.1 29.4-36.9 44.4-7.1 3.8-13.7 7.1-14.5 7.4-.8.3-3.1 1.2-5 1.9-8.2 3.1-7 2.7-13 4.4-2.5.7-4.9 1.6-5.5 1.9-.5.4-1.9.8-3 .9-1.1.2-4.7 1-8 1.8-5.7 1.4-17.2 2.1-20.5 1.2-5.7-1.5-12.6-8.2-16.7-16.2-6.5-12.7-4.5-28.9 5.6-45 4.7-7.6 6.1-9.3 13.6-16.7 5.8-5.7 21.3-16.8 23.4-16.8.6 0 1.1-.5 1.1-1.2 0-.6.3-.9.6-.5.4.3 2.3-.2 4.3-1.2 4-2 13.5-5.3 16.6-5.8 1.1-.1 4.3-.5 7-.9 2.8-.3 5.1-.7 5.2-.8.4-.4 15.8.2 19.3.8z"/></svg>